<mxfile host="65bd71144e">
    <diagram id="1s2feewsB2rRjuzhae5H" name="Cloud diagram">
        <mxGraphModel dx="1722" dy="658" grid="0" gridSize="10" guides="1" tooltips="1" connect="1" arrows="1" fold="1" page="0" pageScale="1" pageWidth="850" pageHeight="1100" background="#ffffff" math="0" shadow="0">
            <root>
                <mxCell id="AlmgsV6fCy6BXIXvCeDi-0"/>
                <mxCell id="AlmgsV6fCy6BXIXvCeDi-1" parent="AlmgsV6fCy6BXIXvCeDi-0"/>
                <mxCell id="M3U381qvAsM7CIxibbUz-0" value="" style="shape=actor;whiteSpace=wrap;html=1;fillColor=#1BA1E2;fontColor=#ffffff;strokeColor=#001DBC;gradientColor=#021B63;" parent="AlmgsV6fCy6BXIXvCeDi-1" vertex="1">
                    <mxGeometry x="177" y="486" width="95" height="110" as="geometry"/>
                </mxCell>
                <mxCell id="M3U381qvAsM7CIxibbUz-1" value="&lt;font color=&quot;#000000&quot;&gt;&lt;b&gt;customer&lt;/b&gt;&lt;/font&gt;" style="ellipse;shape=cloud;whiteSpace=wrap;html=1;fillColor=#b0e3e6;strokeColor=#0e8088;gradientColor=#3333FF;" parent="AlmgsV6fCy6BXIXvCeDi-1" vertex="1">
                    <mxGeometry x="-38" y="432" width="120" height="80" as="geometry"/>
                </mxCell>
                <mxCell id="M3U381qvAsM7CIxibbUz-2" value="&lt;font color=&quot;#000000&quot;&gt;&lt;b&gt;product&lt;/b&gt;&lt;/font&gt;" style="ellipse;shape=cloud;whiteSpace=wrap;html=1;fillColor=#b0e3e6;strokeColor=#0e8088;gradientColor=#3333FF;" parent="AlmgsV6fCy6BXIXvCeDi-1" vertex="1">
                    <mxGeometry x="167" y="306" width="120" height="80" as="geometry"/>
                </mxCell>
                <mxCell id="M3U381qvAsM7CIxibbUz-3" value="&lt;font color=&quot;#000000&quot;&gt;&lt;b&gt;company&lt;/b&gt;&lt;/font&gt;" style="ellipse;shape=cloud;whiteSpace=wrap;html=1;fillColor=#b0e3e6;strokeColor=#0e8088;gradientColor=#3333FF;" parent="AlmgsV6fCy6BXIXvCeDi-1" vertex="1">
                    <mxGeometry x="380" y="429" width="120" height="80" as="geometry"/>
                </mxCell>
            </root>
        </mxGraphModel>
    </diagram>
    <diagram id="frco5WIHKAOLaq02zJHP" name="ER diagram">
        <mxGraphModel dx="4872" dy="1580" grid="0" gridSize="10" guides="1" tooltips="1" connect="1" arrows="1" fold="1" page="1" pageScale="1" pageWidth="850" pageHeight="1100" background="#ffffff" math="0" shadow="0">
            <root>
                <mxCell id="6sY9Fkh6oeW1o7n2yze0-0"/>
                <mxCell id="6sY9Fkh6oeW1o7n2yze0-1" parent="6sY9Fkh6oeW1o7n2yze0-0"/>
                <mxCell id="6sY9Fkh6oeW1o7n2yze0-2" style="edgeStyle=none;html=1;exitX=1;exitY=0.5;exitDx=0;exitDy=0;entryX=0;entryY=0.5;entryDx=0;entryDy=0;fontSize=14;endArrow=none;endFill=0;startArrow=ERmany;startFill=0;strokeColor=#000000;" parent="6sY9Fkh6oeW1o7n2yze0-1" source="6sY9Fkh6oeW1o7n2yze0-3" target="6sY9Fkh6oeW1o7n2yze0-57" edge="1">
                    <mxGeometry relative="1" as="geometry"/>
                </mxCell>
                <mxCell id="6sY9Fkh6oeW1o7n2yze0-3" value="&lt;font style=&quot;font-size: 25px&quot;&gt;customer&lt;/font&gt;" style="rounded=1;whiteSpace=wrap;html=1;fontSize=14;fillColor=#0000CC;fontColor=#ffffff;strokeColor=#001DBC;gradientColor=#011242;" parent="6sY9Fkh6oeW1o7n2yze0-1" vertex="1">
                    <mxGeometry x="-1024" y="539" width="140" height="80" as="geometry"/>
                </mxCell>
                <mxCell id="6sY9Fkh6oeW1o7n2yze0-4" style="edgeStyle=none;html=1;exitX=1;exitY=1;exitDx=0;exitDy=0;entryX=0.014;entryY=0.113;entryDx=0;entryDy=0;entryPerimeter=0;endArrow=none;endFill=0;fontSize=14;strokeColor=#000000;" parent="6sY9Fkh6oeW1o7n2yze0-1" source="6sY9Fkh6oeW1o7n2yze0-5" target="6sY9Fkh6oeW1o7n2yze0-3" edge="1">
                    <mxGeometry relative="1" as="geometry"/>
                </mxCell>
                <mxCell id="6sY9Fkh6oeW1o7n2yze0-5" value="account" style="ellipse;whiteSpace=wrap;html=1;fontSize=14;fillColor=#0050ef;fontColor=#ffffff;strokeColor=#001DBC;" parent="6sY9Fkh6oeW1o7n2yze0-1" vertex="1">
                    <mxGeometry x="-1319" y="400" width="110" height="70" as="geometry"/>
                </mxCell>
                <mxCell id="6sY9Fkh6oeW1o7n2yze0-6" style="edgeStyle=none;html=1;exitX=0.5;exitY=1;exitDx=0;exitDy=0;endArrow=none;endFill=0;fontSize=14;strokeColor=#000000;" parent="6sY9Fkh6oeW1o7n2yze0-1" source="6sY9Fkh6oeW1o7n2yze0-7" target="6sY9Fkh6oeW1o7n2yze0-3" edge="1">
                    <mxGeometry relative="1" as="geometry"/>
                </mxCell>
                <mxCell id="6sY9Fkh6oeW1o7n2yze0-7" value="first_name" style="ellipse;whiteSpace=wrap;html=1;fontSize=14;fillColor=#0050ef;fontColor=#ffffff;strokeColor=#001DBC;" parent="6sY9Fkh6oeW1o7n2yze0-1" vertex="1">
                    <mxGeometry x="-1087" y="269" width="110" height="70" as="geometry"/>
                </mxCell>
                <mxCell id="6sY9Fkh6oeW1o7n2yze0-8" style="edgeStyle=none;html=1;exitX=1;exitY=1;exitDx=0;exitDy=0;endArrow=none;endFill=0;fontSize=14;strokeColor=#000000;" parent="6sY9Fkh6oeW1o7n2yze0-1" source="6sY9Fkh6oeW1o7n2yze0-9" edge="1">
                    <mxGeometry relative="1" as="geometry">
                        <mxPoint x="-1001" y="543" as="targetPoint"/>
                    </mxGeometry>
                </mxCell>
                <mxCell id="6sY9Fkh6oeW1o7n2yze0-9" value="last_name" style="ellipse;whiteSpace=wrap;html=1;fontSize=14;fillColor=#0050ef;fontColor=#ffffff;strokeColor=#001DBC;" parent="6sY9Fkh6oeW1o7n2yze0-1" vertex="1">
                    <mxGeometry x="-1227" y="314" width="110" height="70" as="geometry"/>
                </mxCell>
                <mxCell id="6sY9Fkh6oeW1o7n2yze0-10" style="edgeStyle=none;html=1;exitX=0.5;exitY=0;exitDx=0;exitDy=0;entryX=0.5;entryY=1;entryDx=0;entryDy=0;endArrow=none;endFill=0;fontSize=14;strokeColor=#000000;" parent="6sY9Fkh6oeW1o7n2yze0-1" source="6sY9Fkh6oeW1o7n2yze0-11" target="6sY9Fkh6oeW1o7n2yze0-3" edge="1">
                    <mxGeometry relative="1" as="geometry"/>
                </mxCell>
                <mxCell id="6sY9Fkh6oeW1o7n2yze0-11" value="email" style="ellipse;whiteSpace=wrap;html=1;fontSize=14;fillColor=#0050ef;fontColor=#ffffff;strokeColor=#001DBC;" parent="6sY9Fkh6oeW1o7n2yze0-1" vertex="1">
                    <mxGeometry x="-1040" y="760" width="110" height="70" as="geometry"/>
                </mxCell>
                <mxCell id="6sY9Fkh6oeW1o7n2yze0-12" style="edgeStyle=none;html=1;exitX=0;exitY=0;exitDx=0;exitDy=0;entryX=0.75;entryY=1;entryDx=0;entryDy=0;endArrow=none;endFill=0;fontSize=14;strokeColor=#000000;" parent="6sY9Fkh6oeW1o7n2yze0-1" source="6sY9Fkh6oeW1o7n2yze0-13" target="6sY9Fkh6oeW1o7n2yze0-3" edge="1">
                    <mxGeometry relative="1" as="geometry"/>
                </mxCell>
                <mxCell id="6sY9Fkh6oeW1o7n2yze0-13" value="gender" style="ellipse;whiteSpace=wrap;html=1;fontSize=14;fillColor=#0050ef;fontColor=#ffffff;strokeColor=#001DBC;" parent="6sY9Fkh6oeW1o7n2yze0-1" vertex="1">
                    <mxGeometry x="-892" y="760" width="110" height="70" as="geometry"/>
                </mxCell>
                <mxCell id="6sY9Fkh6oeW1o7n2yze0-14" style="edgeStyle=none;html=1;entryX=0;entryY=0.5;entryDx=0;entryDy=0;endArrow=none;endFill=0;fontSize=14;strokeColor=#000000;" parent="6sY9Fkh6oeW1o7n2yze0-1" source="6sY9Fkh6oeW1o7n2yze0-15" target="6sY9Fkh6oeW1o7n2yze0-3" edge="1">
                    <mxGeometry relative="1" as="geometry"/>
                </mxCell>
                <mxCell id="6sY9Fkh6oeW1o7n2yze0-15" value="phone_number" style="ellipse;whiteSpace=wrap;html=1;fontSize=14;fillColor=#0050ef;fontColor=#ffffff;strokeColor=#001DBC;" parent="6sY9Fkh6oeW1o7n2yze0-1" vertex="1">
                    <mxGeometry x="-1346" y="588" width="110" height="70" as="geometry"/>
                </mxCell>
                <mxCell id="6sY9Fkh6oeW1o7n2yze0-16" style="edgeStyle=none;html=1;exitX=0;exitY=0.5;exitDx=0;exitDy=0;endArrow=none;endFill=0;fontSize=14;strokeColor=#000000;" parent="6sY9Fkh6oeW1o7n2yze0-1" source="6sY9Fkh6oeW1o7n2yze0-17" edge="1">
                    <mxGeometry relative="1" as="geometry">
                        <mxPoint x="-880" y="600" as="targetPoint"/>
                    </mxGeometry>
                </mxCell>
                <mxCell id="6sY9Fkh6oeW1o7n2yze0-17" value="date_of_birth" style="ellipse;whiteSpace=wrap;html=1;fontSize=14;fillColor=#0050ef;fontColor=#ffffff;strokeColor=#001DBC;" parent="6sY9Fkh6oeW1o7n2yze0-1" vertex="1">
                    <mxGeometry x="-810" y="670" width="110" height="70" as="geometry"/>
                </mxCell>
                <mxCell id="6sY9Fkh6oeW1o7n2yze0-18" style="edgeStyle=none;html=1;exitX=0.5;exitY=1;exitDx=0;exitDy=0;entryX=0.75;entryY=0;entryDx=0;entryDy=0;endArrow=none;endFill=0;fontSize=14;strokeColor=#000000;" parent="6sY9Fkh6oeW1o7n2yze0-1" source="6sY9Fkh6oeW1o7n2yze0-19" target="6sY9Fkh6oeW1o7n2yze0-3" edge="1">
                    <mxGeometry relative="1" as="geometry"/>
                </mxCell>
                <mxCell id="6sY9Fkh6oeW1o7n2yze0-19" value="customer_id" style="ellipse;whiteSpace=wrap;html=1;fontSize=14;fillColor=#0050ef;fontColor=#ffffff;strokeColor=#001DBC;" parent="6sY9Fkh6oeW1o7n2yze0-1" vertex="1">
                    <mxGeometry x="-930" y="287" width="110" height="70" as="geometry"/>
                </mxCell>
                <mxCell id="6sY9Fkh6oeW1o7n2yze0-20" style="edgeStyle=none;html=1;exitX=0.671;exitY=1.013;exitDx=0;exitDy=0;fontSize=14;startArrow=ERmany;startFill=0;endArrow=none;endFill=0;entryX=0.5;entryY=0;entryDx=0;entryDy=0;strokeColor=#000000;exitPerimeter=0;" parent="6sY9Fkh6oeW1o7n2yze0-1" source="6sY9Fkh6oeW1o7n2yze0-21" target="6sY9Fkh6oeW1o7n2yze0-59" edge="1">
                    <mxGeometry relative="1" as="geometry">
                        <mxPoint x="110" y="1130" as="targetPoint"/>
                    </mxGeometry>
                </mxCell>
                <mxCell id="6sY9Fkh6oeW1o7n2yze0-21" value="&lt;font style=&quot;font-size: 25px&quot;&gt;product&lt;/font&gt;" style="rounded=1;whiteSpace=wrap;html=1;fontSize=14;fillColor=#0050ef;fontColor=#ffffff;strokeColor=#001DBC;gradientColor=#011242;" parent="6sY9Fkh6oeW1o7n2yze0-1" vertex="1">
                    <mxGeometry x="20" y="541" width="140" height="80" as="geometry"/>
                </mxCell>
                <mxCell id="6sY9Fkh6oeW1o7n2yze0-22" style="edgeStyle=none;html=1;exitX=1;exitY=1;exitDx=0;exitDy=0;entryX=0.25;entryY=0;entryDx=0;entryDy=0;fontSize=14;endArrow=none;endFill=0;strokeColor=#000000;" parent="6sY9Fkh6oeW1o7n2yze0-1" source="6sY9Fkh6oeW1o7n2yze0-23" target="6sY9Fkh6oeW1o7n2yze0-21" edge="1">
                    <mxGeometry relative="1" as="geometry"/>
                </mxCell>
                <mxCell id="6sY9Fkh6oeW1o7n2yze0-23" value="product_id" style="ellipse;whiteSpace=wrap;html=1;fontSize=14;fillColor=#0050ef;fontColor=#ffffff;strokeColor=#001DBC;" parent="6sY9Fkh6oeW1o7n2yze0-1" vertex="1">
                    <mxGeometry x="-70" y="365" width="110" height="70" as="geometry"/>
                </mxCell>
                <mxCell id="6sY9Fkh6oeW1o7n2yze0-24" style="edgeStyle=none;html=1;entryX=0;entryY=0;entryDx=0;entryDy=0;fontSize=14;endArrow=none;endFill=0;strokeColor=#000000;" parent="6sY9Fkh6oeW1o7n2yze0-1" source="6sY9Fkh6oeW1o7n2yze0-25" target="6sY9Fkh6oeW1o7n2yze0-21" edge="1">
                    <mxGeometry relative="1" as="geometry"/>
                </mxCell>
                <mxCell id="6sY9Fkh6oeW1o7n2yze0-25" value="product_name" style="ellipse;whiteSpace=wrap;html=1;fontSize=14;fillColor=#0050ef;fontColor=#ffffff;strokeColor=#001DBC;" parent="6sY9Fkh6oeW1o7n2yze0-1" vertex="1">
                    <mxGeometry x="-180" y="421" width="110" height="70" as="geometry"/>
                </mxCell>
                <mxCell id="6sY9Fkh6oeW1o7n2yze0-26" style="edgeStyle=none;html=1;exitX=1;exitY=0;exitDx=0;exitDy=0;entryX=0;entryY=0.737;entryDx=0;entryDy=0;fontSize=14;endArrow=none;endFill=0;entryPerimeter=0;strokeColor=#000000;" parent="6sY9Fkh6oeW1o7n2yze0-1" source="6sY9Fkh6oeW1o7n2yze0-27" target="6sY9Fkh6oeW1o7n2yze0-21" edge="1">
                    <mxGeometry relative="1" as="geometry"/>
                </mxCell>
                <mxCell id="6sY9Fkh6oeW1o7n2yze0-27" value="description" style="ellipse;whiteSpace=wrap;html=1;fontSize=14;fillColor=#0050ef;fontColor=#ffffff;strokeColor=#001DBC;" parent="6sY9Fkh6oeW1o7n2yze0-1" vertex="1">
                    <mxGeometry x="-190" y="600" width="110" height="70" as="geometry"/>
                </mxCell>
                <mxCell id="6sY9Fkh6oeW1o7n2yze0-28" style="edgeStyle=none;html=1;exitX=0.5;exitY=0;exitDx=0;exitDy=0;entryX=1;entryY=1;entryDx=0;entryDy=0;fontSize=14;endArrow=none;endFill=0;strokeColor=#000000;" parent="6sY9Fkh6oeW1o7n2yze0-1" source="6sY9Fkh6oeW1o7n2yze0-30" target="6sY9Fkh6oeW1o7n2yze0-21" edge="1">
                    <mxGeometry relative="1" as="geometry"/>
                </mxCell>
                <mxCell id="6sY9Fkh6oeW1o7n2yze0-29" style="edgeStyle=none;html=1;exitX=1;exitY=0.5;exitDx=0;exitDy=0;fontSize=14;endArrow=none;endFill=0;" parent="6sY9Fkh6oeW1o7n2yze0-1" source="6sY9Fkh6oeW1o7n2yze0-30" edge="1">
                    <mxGeometry relative="1" as="geometry">
                        <mxPoint x="260" y="691" as="targetPoint"/>
                    </mxGeometry>
                </mxCell>
                <mxCell id="6sY9Fkh6oeW1o7n2yze0-30" value="quantity" style="ellipse;whiteSpace=wrap;html=1;fontSize=14;fillColor=#0050ef;fontColor=#ffffff;strokeColor=#001DBC;" parent="6sY9Fkh6oeW1o7n2yze0-1" vertex="1">
                    <mxGeometry x="254" y="670" width="110" height="70" as="geometry"/>
                </mxCell>
                <mxCell id="6sY9Fkh6oeW1o7n2yze0-31" style="edgeStyle=none;html=1;exitX=0;exitY=0.5;exitDx=0;exitDy=0;entryX=1;entryY=0.25;entryDx=0;entryDy=0;fontSize=14;endArrow=none;endFill=0;strokeColor=#000000;" parent="6sY9Fkh6oeW1o7n2yze0-1" target="6sY9Fkh6oeW1o7n2yze0-21" edge="1">
                    <mxGeometry relative="1" as="geometry">
                        <mxPoint x="310" y="466" as="sourcePoint"/>
                    </mxGeometry>
                </mxCell>
                <mxCell id="6sY9Fkh6oeW1o7n2yze0-32" value="price" style="ellipse;whiteSpace=wrap;html=1;fontSize=14;fillColor=#0050ef;fontColor=#ffffff;strokeColor=#001DBC;" parent="6sY9Fkh6oeW1o7n2yze0-1" vertex="1">
                    <mxGeometry x="318" y="549" width="110" height="70" as="geometry"/>
                </mxCell>
                <mxCell id="6sY9Fkh6oeW1o7n2yze0-33" style="edgeStyle=none;html=1;exitX=0.5;exitY=1;exitDx=0;exitDy=0;fontSize=14;endArrow=none;endFill=0;entryX=0.5;entryY=0;entryDx=0;entryDy=0;strokeColor=#000000;" parent="6sY9Fkh6oeW1o7n2yze0-1" source="6sY9Fkh6oeW1o7n2yze0-34" target="6sY9Fkh6oeW1o7n2yze0-21" edge="1">
                    <mxGeometry relative="1" as="geometry">
                        <mxPoint x="90" y="531" as="targetPoint"/>
                    </mxGeometry>
                </mxCell>
                <mxCell id="6sY9Fkh6oeW1o7n2yze0-34" value="waranty" style="ellipse;whiteSpace=wrap;html=1;fontSize=14;fillColor=#0050ef;fontColor=#ffffff;strokeColor=#001DBC;" parent="6sY9Fkh6oeW1o7n2yze0-1" vertex="1">
                    <mxGeometry x="70" y="339" width="110" height="70" as="geometry"/>
                </mxCell>
                <mxCell id="6sY9Fkh6oeW1o7n2yze0-35" style="edgeStyle=none;html=1;exitX=1;exitY=0;exitDx=0;exitDy=0;entryX=0.144;entryY=1.011;entryDx=0;entryDy=0;entryPerimeter=0;fontSize=14;endArrow=none;endFill=0;strokeColor=#000000;" parent="6sY9Fkh6oeW1o7n2yze0-1" source="6sY9Fkh6oeW1o7n2yze0-36" target="6sY9Fkh6oeW1o7n2yze0-3" edge="1">
                    <mxGeometry relative="1" as="geometry"/>
                </mxCell>
                <mxCell id="6sY9Fkh6oeW1o7n2yze0-36" value="payment" style="ellipse;whiteSpace=wrap;html=1;fontSize=14;fillColor=#0050ef;fontColor=#ffffff;strokeColor=#001DBC;" parent="6sY9Fkh6oeW1o7n2yze0-1" vertex="1">
                    <mxGeometry x="-1220" y="746" width="110" height="70" as="geometry"/>
                </mxCell>
                <mxCell id="6sY9Fkh6oeW1o7n2yze0-37" style="edgeStyle=none;html=1;exitX=1;exitY=0;exitDx=0;exitDy=0;entryX=0.5;entryY=1;entryDx=0;entryDy=0;fontSize=14;endArrow=none;endFill=0;strokeColor=#000000;" parent="6sY9Fkh6oeW1o7n2yze0-1" source="6sY9Fkh6oeW1o7n2yze0-38" target="6sY9Fkh6oeW1o7n2yze0-21" edge="1">
                    <mxGeometry relative="1" as="geometry"/>
                </mxCell>
                <mxCell id="6sY9Fkh6oeW1o7n2yze0-38" value="availabilities" style="ellipse;whiteSpace=wrap;html=1;fontSize=14;fillColor=#0050ef;fontColor=#ffffff;strokeColor=#001DBC;" parent="6sY9Fkh6oeW1o7n2yze0-1" vertex="1">
                    <mxGeometry x="-114" y="696" width="110" height="70" as="geometry"/>
                </mxCell>
                <mxCell id="6sY9Fkh6oeW1o7n2yze0-39" value="&lt;font style=&quot;font-size: 25px&quot;&gt;company&lt;/font&gt;" style="rounded=1;whiteSpace=wrap;html=1;fontSize=14;fillColor=#0050ef;fontColor=#ffffff;strokeColor=#001DBC;gradientColor=#011242;" parent="6sY9Fkh6oeW1o7n2yze0-1" vertex="1">
                    <mxGeometry x="44" y="1237" width="140" height="80" as="geometry"/>
                </mxCell>
                <mxCell id="6sY9Fkh6oeW1o7n2yze0-40" style="edgeStyle=none;html=1;exitX=1;exitY=0.5;exitDx=0;exitDy=0;entryX=0;entryY=0.5;entryDx=0;entryDy=0;fontSize=14;endArrow=none;endFill=0;strokeColor=#000000;" parent="6sY9Fkh6oeW1o7n2yze0-1" source="6sY9Fkh6oeW1o7n2yze0-41" target="6sY9Fkh6oeW1o7n2yze0-39" edge="1">
                    <mxGeometry relative="1" as="geometry"/>
                </mxCell>
                <mxCell id="6sY9Fkh6oeW1o7n2yze0-41" value="address" style="ellipse;whiteSpace=wrap;html=1;fontSize=14;fillColor=#0050ef;fontColor=#ffffff;strokeColor=#001DBC;" parent="6sY9Fkh6oeW1o7n2yze0-1" vertex="1">
                    <mxGeometry x="-180" y="1247" width="110" height="70" as="geometry"/>
                </mxCell>
                <mxCell id="6sY9Fkh6oeW1o7n2yze0-42" style="edgeStyle=none;html=1;exitX=1;exitY=0.5;exitDx=0;exitDy=0;fontSize=14;endArrow=none;endFill=0;entryX=1;entryY=0.5;entryDx=0;entryDy=0;strokeColor=#000000;" parent="6sY9Fkh6oeW1o7n2yze0-1" source="6sY9Fkh6oeW1o7n2yze0-43" target="6sY9Fkh6oeW1o7n2yze0-39" edge="1">
                    <mxGeometry relative="1" as="geometry">
                        <mxPoint x="150" y="1256" as="targetPoint"/>
                    </mxGeometry>
                </mxCell>
                <mxCell id="6sY9Fkh6oeW1o7n2yze0-43" value="company_id" style="ellipse;whiteSpace=wrap;html=1;fontSize=14;fillColor=#0050ef;fontColor=#ffffff;strokeColor=#001DBC;" parent="6sY9Fkh6oeW1o7n2yze0-1" vertex="1">
                    <mxGeometry x="280" y="1236" width="110" height="70" as="geometry"/>
                </mxCell>
                <mxCell id="6sY9Fkh6oeW1o7n2yze0-44" style="edgeStyle=none;html=1;exitX=0.5;exitY=0;exitDx=0;exitDy=0;entryX=0.25;entryY=1;entryDx=0;entryDy=0;fontSize=14;endArrow=none;endFill=0;strokeColor=#000000;" parent="6sY9Fkh6oeW1o7n2yze0-1" source="6sY9Fkh6oeW1o7n2yze0-45" target="6sY9Fkh6oeW1o7n2yze0-39" edge="1">
                    <mxGeometry relative="1" as="geometry"/>
                </mxCell>
                <mxCell id="6sY9Fkh6oeW1o7n2yze0-45" value="name" style="ellipse;whiteSpace=wrap;html=1;fontSize=14;fillColor=#0050ef;fontColor=#ffffff;strokeColor=#001DBC;" parent="6sY9Fkh6oeW1o7n2yze0-1" vertex="1">
                    <mxGeometry x="-60" y="1396" width="110" height="70" as="geometry"/>
                </mxCell>
                <mxCell id="6sY9Fkh6oeW1o7n2yze0-46" style="edgeStyle=none;html=1;exitX=0.325;exitY=0.003;exitDx=0;exitDy=0;fontSize=14;endArrow=none;endFill=0;exitPerimeter=0;strokeColor=#000000;" parent="6sY9Fkh6oeW1o7n2yze0-1" source="6sY9Fkh6oeW1o7n2yze0-47" target="6sY9Fkh6oeW1o7n2yze0-39" edge="1">
                    <mxGeometry relative="1" as="geometry">
                        <mxPoint x="130" y="1336" as="targetPoint"/>
                    </mxGeometry>
                </mxCell>
                <mxCell id="6sY9Fkh6oeW1o7n2yze0-47" value="departments" style="ellipse;whiteSpace=wrap;html=1;fontSize=14;fillColor=#0050ef;fontColor=#ffffff;strokeColor=#001DBC;" parent="6sY9Fkh6oeW1o7n2yze0-1" vertex="1">
                    <mxGeometry x="150" y="1406" width="110" height="70" as="geometry"/>
                </mxCell>
                <mxCell id="6sY9Fkh6oeW1o7n2yze0-48" style="edgeStyle=none;html=1;exitX=0;exitY=1;exitDx=0;exitDy=0;entryX=0.857;entryY=0.013;entryDx=0;entryDy=0;entryPerimeter=0;fontSize=14;endArrow=none;endFill=0;strokeColor=#000000;" parent="6sY9Fkh6oeW1o7n2yze0-1" source="6sY9Fkh6oeW1o7n2yze0-49" target="6sY9Fkh6oeW1o7n2yze0-21" edge="1">
                    <mxGeometry relative="1" as="geometry"/>
                </mxCell>
                <mxCell id="6sY9Fkh6oeW1o7n2yze0-49" value="shipping_company" style="ellipse;whiteSpace=wrap;html=1;fontSize=14;fillColor=#0050ef;fontColor=#ffffff;strokeColor=#001DBC;" parent="6sY9Fkh6oeW1o7n2yze0-1" vertex="1">
                    <mxGeometry x="190" y="351" width="140" height="70" as="geometry"/>
                </mxCell>
                <mxCell id="6sY9Fkh6oeW1o7n2yze0-50" style="edgeStyle=none;html=1;exitX=0;exitY=0.5;exitDx=0;exitDy=0;entryX=1;entryY=0.5;entryDx=0;entryDy=0;fontSize=14;endArrow=none;endFill=0;strokeColor=#000000;" parent="6sY9Fkh6oeW1o7n2yze0-1" source="6sY9Fkh6oeW1o7n2yze0-32" target="6sY9Fkh6oeW1o7n2yze0-21" edge="1">
                    <mxGeometry relative="1" as="geometry">
                        <mxPoint x="300" y="571" as="sourcePoint"/>
                    </mxGeometry>
                </mxCell>
                <mxCell id="6sY9Fkh6oeW1o7n2yze0-51" value="order_id" style="ellipse;whiteSpace=wrap;html=1;fontSize=14;fillColor=#0050ef;fontColor=#ffffff;strokeColor=#001DBC;" parent="6sY9Fkh6oeW1o7n2yze0-1" vertex="1">
                    <mxGeometry x="273" y="430" width="110" height="70" as="geometry"/>
                </mxCell>
                <mxCell id="6sY9Fkh6oeW1o7n2yze0-52" style="edgeStyle=none;html=1;exitX=1;exitY=0.5;exitDx=0;exitDy=0;entryX=0;entryY=0.25;entryDx=0;entryDy=0;fontSize=14;endArrow=none;endFill=0;strokeColor=#000000;" parent="6sY9Fkh6oeW1o7n2yze0-1" source="6sY9Fkh6oeW1o7n2yze0-53" target="6sY9Fkh6oeW1o7n2yze0-3" edge="1">
                    <mxGeometry relative="1" as="geometry"/>
                </mxCell>
                <mxCell id="6sY9Fkh6oeW1o7n2yze0-53" value="address" style="ellipse;whiteSpace=wrap;html=1;fontSize=14;fillColor=#0050ef;fontColor=#ffffff;strokeColor=#001DBC;" parent="6sY9Fkh6oeW1o7n2yze0-1" vertex="1">
                    <mxGeometry x="-1350" y="505" width="110" height="70" as="geometry"/>
                </mxCell>
                <mxCell id="6sY9Fkh6oeW1o7n2yze0-54" style="edgeStyle=none;html=1;exitX=1;exitY=0;exitDx=0;exitDy=0;entryX=-0.007;entryY=0.863;entryDx=0;entryDy=0;entryPerimeter=0;fontSize=14;endArrow=none;endFill=0;strokeColor=#000000;" parent="6sY9Fkh6oeW1o7n2yze0-1" source="6sY9Fkh6oeW1o7n2yze0-55" target="6sY9Fkh6oeW1o7n2yze0-3" edge="1">
                    <mxGeometry relative="1" as="geometry"/>
                </mxCell>
                <mxCell id="6sY9Fkh6oeW1o7n2yze0-55" value="invoice" style="ellipse;whiteSpace=wrap;html=1;fontSize=14;fillColor=#0050ef;fontColor=#ffffff;strokeColor=#001DBC;" parent="6sY9Fkh6oeW1o7n2yze0-1" vertex="1">
                    <mxGeometry x="-1310" y="670" width="110" height="70" as="geometry"/>
                </mxCell>
                <mxCell id="6sY9Fkh6oeW1o7n2yze0-56" style="edgeStyle=none;html=1;exitX=1;exitY=0.5;exitDx=0;exitDy=0;entryX=0;entryY=0.5;entryDx=0;entryDy=0;fontSize=14;endArrow=ERmany;endFill=0;" parent="6sY9Fkh6oeW1o7n2yze0-1" source="6sY9Fkh6oeW1o7n2yze0-57" target="6sY9Fkh6oeW1o7n2yze0-21" edge="1">
                    <mxGeometry relative="1" as="geometry"/>
                </mxCell>
                <mxCell id="6sY9Fkh6oeW1o7n2yze0-57" value="&lt;font style=&quot;font-size: 22px&quot;&gt;order&lt;/font&gt;" style="rhombus;whiteSpace=wrap;html=1;fontSize=14;fillColor=#3867FF;fontColor=#ffffff;strokeColor=#006EAF;" parent="6sY9Fkh6oeW1o7n2yze0-1" vertex="1">
                    <mxGeometry x="-560" y="520" width="210" height="110" as="geometry"/>
                </mxCell>
                <mxCell id="6sY9Fkh6oeW1o7n2yze0-58" style="edgeStyle=none;html=1;exitX=0.5;exitY=1;exitDx=0;exitDy=0;entryX=0.5;entryY=0;entryDx=0;entryDy=0;fontSize=14;startArrow=none;startFill=0;endArrow=ERone;endFill=0;strokeColor=#000000;" parent="6sY9Fkh6oeW1o7n2yze0-1" source="6sY9Fkh6oeW1o7n2yze0-59" target="6sY9Fkh6oeW1o7n2yze0-39" edge="1">
                    <mxGeometry relative="1" as="geometry"/>
                </mxCell>
                <mxCell id="6sY9Fkh6oeW1o7n2yze0-59" value="&lt;font style=&quot;font-size: 22px&quot;&gt;produce&lt;/font&gt;" style="rhombus;whiteSpace=wrap;html=1;fontSize=14;fillColor=#3867FF;fontColor=#ffffff;strokeColor=#006EAF;" parent="6sY9Fkh6oeW1o7n2yze0-1" vertex="1">
                    <mxGeometry x="7" y="936" width="210" height="110" as="geometry"/>
                </mxCell>
                <mxCell id="6sY9Fkh6oeW1o7n2yze0-60" style="edgeStyle=none;html=1;exitX=1;exitY=0.5;exitDx=0;exitDy=0;entryX=0;entryY=0.5;entryDx=0;entryDy=0;fontSize=14;endArrow=ERmany;endFill=0;strokeColor=#000000;" parent="6sY9Fkh6oeW1o7n2yze0-1" edge="1">
                    <mxGeometry relative="1" as="geometry">
                        <mxPoint x="-348" y="575" as="sourcePoint"/>
                        <mxPoint x="22" y="581" as="targetPoint"/>
                    </mxGeometry>
                </mxCell>
            </root>
        </mxGraphModel>
    </diagram>
    <diagram id="jV_niLNNCNkmIUa-70N7" name="UML diagram">
        <mxGraphModel dx="1586" dy="790" grid="0" gridSize="10" guides="1" tooltips="1" connect="1" arrows="1" fold="1" page="1" pageScale="1" pageWidth="850" pageHeight="1100" background="#FFFFFF" math="0" shadow="0">
            <root>
                <mxCell id="7HqtUNyBKhZOOU_mPo9h-0"/>
                <mxCell id="7HqtUNyBKhZOOU_mPo9h-1" parent="7HqtUNyBKhZOOU_mPo9h-0"/>
                <mxCell id="7HqtUNyBKhZOOU_mPo9h-2" value="customer" style="swimlane;fontStyle=0;childLayout=stackLayout;horizontal=1;startSize=26;fillColor=#0050ef;horizontalStack=0;resizeParent=1;resizeParentMax=0;resizeLast=0;collapsible=1;marginBottom=0;fontColor=#000000;strokeColor=#001DBC;" parent="7HqtUNyBKhZOOU_mPo9h-1" vertex="1">
                    <mxGeometry x="173" y="196" width="140" height="312" as="geometry"/>
                </mxCell>
                <mxCell id="7HqtUNyBKhZOOU_mPo9h-3" value="+ customer_id: int" style="text;strokeColor=#006EAF;fillColor=#1ba1e2;align=left;verticalAlign=top;spacingLeft=4;spacingRight=4;overflow=hidden;rotatable=0;points=[[0,0.5],[1,0.5]];portConstraint=eastwest;fontColor=#ffffff;" parent="7HqtUNyBKhZOOU_mPo9h-2" vertex="1">
                    <mxGeometry y="26" width="140" height="26" as="geometry"/>
                </mxCell>
                <mxCell id="7HqtUNyBKhZOOU_mPo9h-4" value="+ first_name: string" style="text;strokeColor=none;fillColor=none;align=left;verticalAlign=top;spacingLeft=4;spacingRight=4;overflow=hidden;rotatable=0;points=[[0,0.5],[1,0.5]];portConstraint=eastwest;fontColor=#000000;" parent="7HqtUNyBKhZOOU_mPo9h-2" vertex="1">
                    <mxGeometry y="52" width="140" height="26" as="geometry"/>
                </mxCell>
                <mxCell id="7HqtUNyBKhZOOU_mPo9h-5" value="+ last_name: string" style="text;strokeColor=none;fillColor=none;align=left;verticalAlign=top;spacingLeft=4;spacingRight=4;overflow=hidden;rotatable=0;points=[[0,0.5],[1,0.5]];portConstraint=eastwest;fontColor=#000000;" parent="7HqtUNyBKhZOOU_mPo9h-2" vertex="1">
                    <mxGeometry y="78" width="140" height="26" as="geometry"/>
                </mxCell>
                <mxCell id="7HqtUNyBKhZOOU_mPo9h-6" value="+ phone_number: int" style="text;strokeColor=none;fillColor=none;align=left;verticalAlign=top;spacingLeft=4;spacingRight=4;overflow=hidden;rotatable=0;points=[[0,0.5],[1,0.5]];portConstraint=eastwest;fontColor=#000000;" parent="7HqtUNyBKhZOOU_mPo9h-2" vertex="1">
                    <mxGeometry y="104" width="140" height="26" as="geometry"/>
                </mxCell>
                <mxCell id="7HqtUNyBKhZOOU_mPo9h-7" value="+ address: string" style="text;strokeColor=none;fillColor=none;align=left;verticalAlign=top;spacingLeft=4;spacingRight=4;overflow=hidden;rotatable=0;points=[[0,0.5],[1,0.5]];portConstraint=eastwest;fontColor=#000000;" parent="7HqtUNyBKhZOOU_mPo9h-2" vertex="1">
                    <mxGeometry y="130" width="140" height="26" as="geometry"/>
                </mxCell>
                <mxCell id="7HqtUNyBKhZOOU_mPo9h-8" value="+ payment_form: string" style="text;strokeColor=none;fillColor=none;align=left;verticalAlign=top;spacingLeft=4;spacingRight=4;overflow=hidden;rotatable=0;points=[[0,0.5],[1,0.5]];portConstraint=eastwest;fontColor=#000000;" parent="7HqtUNyBKhZOOU_mPo9h-2" vertex="1">
                    <mxGeometry y="156" width="140" height="26" as="geometry"/>
                </mxCell>
                <mxCell id="7HqtUNyBKhZOOU_mPo9h-9" value="+ bank_account: string" style="text;strokeColor=none;fillColor=none;align=left;verticalAlign=top;spacingLeft=4;spacingRight=4;overflow=hidden;rotatable=0;points=[[0,0.5],[1,0.5]];portConstraint=eastwest;fontColor=#000000;" parent="7HqtUNyBKhZOOU_mPo9h-2" vertex="1">
                    <mxGeometry y="182" width="140" height="26" as="geometry"/>
                </mxCell>
                <mxCell id="7HqtUNyBKhZOOU_mPo9h-10" value="+ invoice: string" style="text;strokeColor=none;fillColor=none;align=left;verticalAlign=top;spacingLeft=4;spacingRight=4;overflow=hidden;rotatable=0;points=[[0,0.5],[1,0.5]];portConstraint=eastwest;fontColor=#000000;" parent="7HqtUNyBKhZOOU_mPo9h-2" vertex="1">
                    <mxGeometry y="208" width="140" height="26" as="geometry"/>
                </mxCell>
                <mxCell id="7HqtUNyBKhZOOU_mPo9h-11" value="+ email: string" style="text;strokeColor=none;fillColor=none;align=left;verticalAlign=top;spacingLeft=4;spacingRight=4;overflow=hidden;rotatable=0;points=[[0,0.5],[1,0.5]];portConstraint=eastwest;fontColor=#000000;" parent="7HqtUNyBKhZOOU_mPo9h-2" vertex="1">
                    <mxGeometry y="234" width="140" height="26" as="geometry"/>
                </mxCell>
                <mxCell id="7HqtUNyBKhZOOU_mPo9h-12" value="+ gender: enum(F,M)" style="text;strokeColor=none;fillColor=none;align=left;verticalAlign=top;spacingLeft=4;spacingRight=4;overflow=hidden;rotatable=0;points=[[0,0.5],[1,0.5]];portConstraint=eastwest;fontColor=#000000;" parent="7HqtUNyBKhZOOU_mPo9h-2" vertex="1">
                    <mxGeometry y="260" width="140" height="26" as="geometry"/>
                </mxCell>
                <mxCell id="7HqtUNyBKhZOOU_mPo9h-13" value="+ date_of_birth: date" style="text;strokeColor=none;fillColor=none;align=left;verticalAlign=top;spacingLeft=4;spacingRight=4;overflow=hidden;rotatable=0;points=[[0,0.5],[1,0.5]];portConstraint=eastwest;fontColor=#000000;" parent="7HqtUNyBKhZOOU_mPo9h-2" vertex="1">
                    <mxGeometry y="286" width="140" height="26" as="geometry"/>
                </mxCell>
                <mxCell id="7HqtUNyBKhZOOU_mPo9h-14" value="products" style="swimlane;fontStyle=1;align=center;verticalAlign=top;childLayout=stackLayout;horizontal=1;startSize=26;horizontalStack=0;resizeParent=1;resizeParentMax=0;resizeLast=0;collapsible=1;marginBottom=0;fillColor=#0050ef;fontColor=#000000;strokeColor=#001DBC;" parent="7HqtUNyBKhZOOU_mPo9h-1" vertex="1">
                    <mxGeometry x="533" y="196" width="160" height="268" as="geometry"/>
                </mxCell>
                <mxCell id="7HqtUNyBKhZOOU_mPo9h-15" value="+ product_id: int" style="text;strokeColor=#006EAF;fillColor=#1ba1e2;align=left;verticalAlign=top;spacingLeft=4;spacingRight=4;overflow=hidden;rotatable=0;points=[[0,0.5],[1,0.5]];portConstraint=eastwest;fontColor=#ffffff;" parent="7HqtUNyBKhZOOU_mPo9h-14" vertex="1">
                    <mxGeometry y="26" width="160" height="26" as="geometry"/>
                </mxCell>
                <mxCell id="7HqtUNyBKhZOOU_mPo9h-16" value="" style="line;strokeWidth=1;fillColor=none;align=left;verticalAlign=middle;spacingTop=-1;spacingLeft=3;spacingRight=3;rotatable=0;labelPosition=right;points=[];portConstraint=eastwest;fontColor=#000000;" parent="7HqtUNyBKhZOOU_mPo9h-14" vertex="1">
                    <mxGeometry y="52" width="160" height="8" as="geometry"/>
                </mxCell>
                <mxCell id="7HqtUNyBKhZOOU_mPo9h-17" value="+ product_name: string" style="text;strokeColor=none;fillColor=none;align=left;verticalAlign=top;spacingLeft=4;spacingRight=4;overflow=hidden;rotatable=0;points=[[0,0.5],[1,0.5]];portConstraint=eastwest;fontColor=#000000;" parent="7HqtUNyBKhZOOU_mPo9h-14" vertex="1">
                    <mxGeometry y="60" width="160" height="26" as="geometry"/>
                </mxCell>
                <mxCell id="7HqtUNyBKhZOOU_mPo9h-18" value="+ waranty: enum(yes,no)" style="text;strokeColor=none;fillColor=none;align=left;verticalAlign=top;spacingLeft=4;spacingRight=4;overflow=hidden;rotatable=0;points=[[0,0.5],[1,0.5]];portConstraint=eastwest;fontColor=#000000;" parent="7HqtUNyBKhZOOU_mPo9h-14" vertex="1">
                    <mxGeometry y="86" width="160" height="26" as="geometry"/>
                </mxCell>
                <mxCell id="7HqtUNyBKhZOOU_mPo9h-19" value="+ shipping_company: string" style="text;strokeColor=none;fillColor=none;align=left;verticalAlign=top;spacingLeft=4;spacingRight=4;overflow=hidden;rotatable=0;points=[[0,0.5],[1,0.5]];portConstraint=eastwest;fontColor=#000000;" parent="7HqtUNyBKhZOOU_mPo9h-14" vertex="1">
                    <mxGeometry y="112" width="160" height="26" as="geometry"/>
                </mxCell>
                <mxCell id="7HqtUNyBKhZOOU_mPo9h-20" value="+ order: string" style="text;strokeColor=none;fillColor=none;align=left;verticalAlign=top;spacingLeft=4;spacingRight=4;overflow=hidden;rotatable=0;points=[[0,0.5],[1,0.5]];portConstraint=eastwest;fontColor=#000000;" parent="7HqtUNyBKhZOOU_mPo9h-14" vertex="1">
                    <mxGeometry y="138" width="160" height="26" as="geometry"/>
                </mxCell>
                <mxCell id="7HqtUNyBKhZOOU_mPo9h-21" value="+ price: int" style="text;strokeColor=none;fillColor=none;align=left;verticalAlign=top;spacingLeft=4;spacingRight=4;overflow=hidden;rotatable=0;points=[[0,0.5],[1,0.5]];portConstraint=eastwest;fontColor=#000000;" parent="7HqtUNyBKhZOOU_mPo9h-14" vertex="1">
                    <mxGeometry y="164" width="160" height="26" as="geometry"/>
                </mxCell>
                <mxCell id="7HqtUNyBKhZOOU_mPo9h-22" value="+ quantity: int" style="text;strokeColor=none;fillColor=none;align=left;verticalAlign=top;spacingLeft=4;spacingRight=4;overflow=hidden;rotatable=0;points=[[0,0.5],[1,0.5]];portConstraint=eastwest;fontColor=#000000;" parent="7HqtUNyBKhZOOU_mPo9h-14" vertex="1">
                    <mxGeometry y="190" width="160" height="26" as="geometry"/>
                </mxCell>
                <mxCell id="7HqtUNyBKhZOOU_mPo9h-23" value="+ availability: enum(yes,no)" style="text;strokeColor=none;fillColor=none;align=left;verticalAlign=top;spacingLeft=4;spacingRight=4;overflow=hidden;rotatable=0;points=[[0,0.5],[1,0.5]];portConstraint=eastwest;fontColor=#000000;" parent="7HqtUNyBKhZOOU_mPo9h-14" vertex="1">
                    <mxGeometry y="216" width="160" height="26" as="geometry"/>
                </mxCell>
                <mxCell id="7HqtUNyBKhZOOU_mPo9h-24" value="+ description: string" style="text;strokeColor=none;fillColor=none;align=left;verticalAlign=top;spacingLeft=4;spacingRight=4;overflow=hidden;rotatable=0;points=[[0,0.5],[1,0.5]];portConstraint=eastwest;fontColor=#000000;" parent="7HqtUNyBKhZOOU_mPo9h-14" vertex="1">
                    <mxGeometry y="242" width="160" height="26" as="geometry"/>
                </mxCell>
                <mxCell id="7HqtUNyBKhZOOU_mPo9h-25" value="company" style="swimlane;fontStyle=1;align=center;verticalAlign=top;childLayout=stackLayout;horizontal=1;startSize=26;horizontalStack=0;resizeParent=1;resizeParentMax=0;resizeLast=0;collapsible=1;marginBottom=0;fillColor=#0050ef;fontColor=#000000;strokeColor=#001DBC;" parent="7HqtUNyBKhZOOU_mPo9h-1" vertex="1">
                    <mxGeometry x="843" y="196" width="160" height="138" as="geometry"/>
                </mxCell>
                <mxCell id="7HqtUNyBKhZOOU_mPo9h-26" value="+ company_id: int" style="text;strokeColor=#006EAF;fillColor=#1ba1e2;align=left;verticalAlign=top;spacingLeft=4;spacingRight=4;overflow=hidden;rotatable=0;points=[[0,0.5],[1,0.5]];portConstraint=eastwest;fontColor=#ffffff;" parent="7HqtUNyBKhZOOU_mPo9h-25" vertex="1">
                    <mxGeometry y="26" width="160" height="26" as="geometry"/>
                </mxCell>
                <mxCell id="7HqtUNyBKhZOOU_mPo9h-27" value="" style="line;strokeWidth=1;fillColor=none;align=left;verticalAlign=middle;spacingTop=-1;spacingLeft=3;spacingRight=3;rotatable=0;labelPosition=right;points=[];portConstraint=eastwest;fontColor=#000000;" parent="7HqtUNyBKhZOOU_mPo9h-25" vertex="1">
                    <mxGeometry y="52" width="160" height="8" as="geometry"/>
                </mxCell>
                <mxCell id="7HqtUNyBKhZOOU_mPo9h-28" value="+ name: string" style="text;strokeColor=none;fillColor=none;align=left;verticalAlign=top;spacingLeft=4;spacingRight=4;overflow=hidden;rotatable=0;points=[[0,0.5],[1,0.5]];portConstraint=eastwest;fontColor=#000000;" parent="7HqtUNyBKhZOOU_mPo9h-25" vertex="1">
                    <mxGeometry y="60" width="160" height="26" as="geometry"/>
                </mxCell>
                <mxCell id="7HqtUNyBKhZOOU_mPo9h-29" value="+ address: string" style="text;strokeColor=none;fillColor=none;align=left;verticalAlign=top;spacingLeft=4;spacingRight=4;overflow=hidden;rotatable=0;points=[[0,0.5],[1,0.5]];portConstraint=eastwest;fontColor=#000000;" parent="7HqtUNyBKhZOOU_mPo9h-25" vertex="1">
                    <mxGeometry y="86" width="160" height="26" as="geometry"/>
                </mxCell>
                <mxCell id="7HqtUNyBKhZOOU_mPo9h-30" value="+ department: string" style="text;strokeColor=none;fillColor=none;align=left;verticalAlign=top;spacingLeft=4;spacingRight=4;overflow=hidden;rotatable=0;points=[[0,0.5],[1,0.5]];portConstraint=eastwest;fontColor=#000000;" parent="7HqtUNyBKhZOOU_mPo9h-25" vertex="1">
                    <mxGeometry y="112" width="160" height="26" as="geometry"/>
                </mxCell>
                <mxCell id="7HqtUNyBKhZOOU_mPo9h-31" style="edgeStyle=none;html=1;exitX=1;exitY=0.5;exitDx=0;exitDy=0;entryX=0.005;entryY=0.09;entryDx=0;entryDy=0;entryPerimeter=0;startArrow=ERmany;startFill=0;endArrow=ERmany;endFill=0;fontColor=#000000;fillColor=#0050ef;strokeColor=#001DBC;" parent="7HqtUNyBKhZOOU_mPo9h-1" source="7HqtUNyBKhZOOU_mPo9h-7" target="7HqtUNyBKhZOOU_mPo9h-20" edge="1">
                    <mxGeometry relative="1" as="geometry"/>
                </mxCell>
                <mxCell id="7HqtUNyBKhZOOU_mPo9h-32" style="edgeStyle=none;html=1;exitX=1;exitY=0.5;exitDx=0;exitDy=0;entryX=0;entryY=0.5;entryDx=0;entryDy=0;startArrow=ERmany;startFill=0;endArrow=ERone;endFill=0;fontColor=#000000;fillColor=#0050ef;strokeColor=#001DBC;" parent="7HqtUNyBKhZOOU_mPo9h-1" source="7HqtUNyBKhZOOU_mPo9h-19" target="7HqtUNyBKhZOOU_mPo9h-30" edge="1">
                    <mxGeometry relative="1" as="geometry"/>
                </mxCell>
            </root>
        </mxGraphModel>
    </diagram>
    <diagram id="v5WAtqtUA1yzj4y-diqq" name="Normalizing">
        <mxGraphModel dx="3493" dy="1317" grid="0" gridSize="10" guides="1" tooltips="1" connect="1" arrows="1" fold="1" page="1" pageScale="1" pageWidth="850" pageHeight="1100" background="#ffffff" math="0" shadow="0">
            <root>
                <mxCell id="W6hokBZnQVttRN7ZxCaq-0"/>
                <mxCell id="W6hokBZnQVttRN7ZxCaq-1" parent="W6hokBZnQVttRN7ZxCaq-0"/>
                <mxCell id="W6hokBZnQVttRN7ZxCaq-2" value="customer" style="swimlane;fontStyle=0;childLayout=stackLayout;horizontal=1;startSize=26;fillColor=#0050ef;horizontalStack=0;resizeParent=1;resizeParentMax=0;resizeLast=0;collapsible=1;marginBottom=0;fontColor=#FFFFFF;strokeColor=#001DBC;fontSize=15;" parent="W6hokBZnQVttRN7ZxCaq-1" vertex="1">
                    <mxGeometry x="-227" y="263" width="194" height="338" as="geometry"/>
                </mxCell>
                <mxCell id="W6hokBZnQVttRN7ZxCaq-3" value="+ customer_id: int" style="text;strokeColor=#36393d;fillColor=#FFFF33;align=left;verticalAlign=top;spacingLeft=4;spacingRight=4;overflow=hidden;rotatable=0;points=[[0,0.5],[1,0.5]];portConstraint=eastwest;fontStyle=4;fontColor=#000000;" parent="W6hokBZnQVttRN7ZxCaq-2" vertex="1">
                    <mxGeometry y="26" width="194" height="26" as="geometry"/>
                </mxCell>
                <mxCell id="W6hokBZnQVttRN7ZxCaq-4" value="+ first_name: string" style="text;strokeColor=#001DBC;fillColor=none;align=left;verticalAlign=top;spacingLeft=4;spacingRight=4;overflow=hidden;rotatable=0;points=[[0,0.5],[1,0.5]];portConstraint=eastwest;fontColor=#000000;" parent="W6hokBZnQVttRN7ZxCaq-2" vertex="1">
                    <mxGeometry y="52" width="194" height="26" as="geometry"/>
                </mxCell>
                <mxCell id="W6hokBZnQVttRN7ZxCaq-5" value="+ last_name: string" style="text;strokeColor=#001DBC;fillColor=none;align=left;verticalAlign=top;spacingLeft=4;spacingRight=4;overflow=hidden;rotatable=0;points=[[0,0.5],[1,0.5]];portConstraint=eastwest;fontColor=#000000;" parent="W6hokBZnQVttRN7ZxCaq-2" vertex="1">
                    <mxGeometry y="78" width="194" height="26" as="geometry"/>
                </mxCell>
                <mxCell id="W6hokBZnQVttRN7ZxCaq-6" value="+ phone_number: int" style="text;strokeColor=#001DBC;fillColor=none;align=left;verticalAlign=top;spacingLeft=4;spacingRight=4;overflow=hidden;rotatable=0;points=[[0,0.5],[1,0.5]];portConstraint=eastwest;fontColor=#000000;" parent="W6hokBZnQVttRN7ZxCaq-2" vertex="1">
                    <mxGeometry y="104" width="194" height="26" as="geometry"/>
                </mxCell>
                <mxCell id="W6hokBZnQVttRN7ZxCaq-8" value="+ bank_account: string" style="text;strokeColor=#001DBC;fillColor=none;align=left;verticalAlign=top;spacingLeft=4;spacingRight=4;overflow=hidden;rotatable=0;points=[[0,0.5],[1,0.5]];portConstraint=eastwest;fontColor=#000000;" parent="W6hokBZnQVttRN7ZxCaq-2" vertex="1">
                    <mxGeometry y="130" width="194" height="26" as="geometry"/>
                </mxCell>
                <mxCell id="W6hokBZnQVttRN7ZxCaq-9" value="+ invoice: string" style="text;strokeColor=#001DBC;fillColor=none;align=left;verticalAlign=top;spacingLeft=4;spacingRight=4;overflow=hidden;rotatable=0;points=[[0,0.5],[1,0.5]];portConstraint=eastwest;fontColor=#000000;" parent="W6hokBZnQVttRN7ZxCaq-2" vertex="1">
                    <mxGeometry y="156" width="194" height="26" as="geometry"/>
                </mxCell>
                <mxCell id="W6hokBZnQVttRN7ZxCaq-10" value="+ email: string" style="text;strokeColor=#001DBC;fillColor=none;align=left;verticalAlign=top;spacingLeft=4;spacingRight=4;overflow=hidden;rotatable=0;points=[[0,0.5],[1,0.5]];portConstraint=eastwest;fontColor=#000000;" parent="W6hokBZnQVttRN7ZxCaq-2" vertex="1">
                    <mxGeometry y="182" width="194" height="26" as="geometry"/>
                </mxCell>
                <mxCell id="W6hokBZnQVttRN7ZxCaq-11" value="+ gender: enum(F,M)" style="text;strokeColor=#001DBC;fillColor=none;align=left;verticalAlign=top;spacingLeft=4;spacingRight=4;overflow=hidden;rotatable=0;points=[[0,0.5],[1,0.5]];portConstraint=eastwest;fontColor=#000000;" parent="W6hokBZnQVttRN7ZxCaq-2" vertex="1">
                    <mxGeometry y="208" width="194" height="26" as="geometry"/>
                </mxCell>
                <mxCell id="W6hokBZnQVttRN7ZxCaq-12" value="+ date_of_birth: date" style="text;strokeColor=#001DBC;fillColor=none;align=left;verticalAlign=top;spacingLeft=4;spacingRight=4;overflow=hidden;rotatable=0;points=[[0,0.5],[1,0.5]];portConstraint=eastwest;fontColor=#000000;" parent="W6hokBZnQVttRN7ZxCaq-2" vertex="1">
                    <mxGeometry y="234" width="194" height="26" as="geometry"/>
                </mxCell>
                <mxCell id="W6hokBZnQVttRN7ZxCaq-13" value="+ fk_address_id: int" style="text;strokeColor=#001DBC;fillColor=#1BA1E2;align=left;verticalAlign=top;spacingLeft=4;spacingRight=4;overflow=hidden;rotatable=0;points=[[0,0.5],[1,0.5]];portConstraint=eastwest;fontColor=#000000;" parent="W6hokBZnQVttRN7ZxCaq-2" vertex="1">
                    <mxGeometry y="260" width="194" height="26" as="geometry"/>
                </mxCell>
                <mxCell id="W6hokBZnQVttRN7ZxCaq-14" value="+ fk_account_id: int" style="text;strokeColor=#001DBC;fillColor=#1ba1e2;align=left;verticalAlign=top;spacingLeft=4;spacingRight=4;overflow=hidden;rotatable=0;points=[[0,0.5],[1,0.5]];portConstraint=eastwest;fontColor=#000000;" parent="W6hokBZnQVttRN7ZxCaq-2" vertex="1">
                    <mxGeometry y="286" width="194" height="26" as="geometry"/>
                </mxCell>
                <mxCell id="A4yN0IZyJwvcap9MYJDl-0" value="+ fk_payment_form_id: int" style="text;strokeColor=#001DBC;fillColor=#1ba1e2;align=left;verticalAlign=top;spacingLeft=4;spacingRight=4;overflow=hidden;rotatable=0;points=[[0,0.5],[1,0.5]];portConstraint=eastwest;fontColor=#000000;" vertex="1" parent="W6hokBZnQVttRN7ZxCaq-2">
                    <mxGeometry y="312" width="194" height="26" as="geometry"/>
                </mxCell>
                <mxCell id="W6hokBZnQVttRN7ZxCaq-15" value="product" style="swimlane;fontStyle=1;align=center;verticalAlign=top;childLayout=stackLayout;horizontal=1;startSize=26;horizontalStack=0;resizeParent=1;resizeParentMax=0;resizeLast=0;collapsible=1;marginBottom=0;fillColor=#0050ef;fontColor=#FFFFFF;strokeColor=#001DBC;fontSize=15;" parent="W6hokBZnQVttRN7ZxCaq-1" vertex="1">
                    <mxGeometry x="428" y="263" width="160" height="260" as="geometry"/>
                </mxCell>
                <mxCell id="W6hokBZnQVttRN7ZxCaq-16" value="+ product_id: int" style="text;strokeColor=#36393d;fillColor=#FFFF33;align=left;verticalAlign=top;spacingLeft=4;spacingRight=4;overflow=hidden;rotatable=0;points=[[0,0.5],[1,0.5]];portConstraint=eastwest;fontStyle=4;fontColor=#000000;" parent="W6hokBZnQVttRN7ZxCaq-15" vertex="1">
                    <mxGeometry y="26" width="160" height="26" as="geometry"/>
                </mxCell>
                <mxCell id="W6hokBZnQVttRN7ZxCaq-18" value="+ products_name: string" style="text;strokeColor=#001DBC;fillColor=none;align=left;verticalAlign=top;spacingLeft=4;spacingRight=4;overflow=hidden;rotatable=0;points=[[0,0.5],[1,0.5]];portConstraint=eastwest;fontColor=#000000;" parent="W6hokBZnQVttRN7ZxCaq-15" vertex="1">
                    <mxGeometry y="52" width="160" height="26" as="geometry"/>
                </mxCell>
                <mxCell id="W6hokBZnQVttRN7ZxCaq-19" value="+ waranty: enum(yes,no)" style="text;strokeColor=#001DBC;fillColor=none;align=left;verticalAlign=top;spacingLeft=4;spacingRight=4;overflow=hidden;rotatable=0;points=[[0,0.5],[1,0.5]];portConstraint=eastwest;fontColor=#000000;" parent="W6hokBZnQVttRN7ZxCaq-15" vertex="1">
                    <mxGeometry y="78" width="160" height="26" as="geometry"/>
                </mxCell>
                <mxCell id="W6hokBZnQVttRN7ZxCaq-21" value="+ order: string" style="text;strokeColor=#001DBC;fillColor=none;align=left;verticalAlign=top;spacingLeft=4;spacingRight=4;overflow=hidden;rotatable=0;points=[[0,0.5],[1,0.5]];portConstraint=eastwest;fontColor=#000000;" parent="W6hokBZnQVttRN7ZxCaq-15" vertex="1">
                    <mxGeometry y="104" width="160" height="26" as="geometry"/>
                </mxCell>
                <mxCell id="W6hokBZnQVttRN7ZxCaq-22" value="+ price: int" style="text;strokeColor=#001DBC;fillColor=none;align=left;verticalAlign=top;spacingLeft=4;spacingRight=4;overflow=hidden;rotatable=0;points=[[0,0.5],[1,0.5]];portConstraint=eastwest;fontColor=#000000;" parent="W6hokBZnQVttRN7ZxCaq-15" vertex="1">
                    <mxGeometry y="130" width="160" height="26" as="geometry"/>
                </mxCell>
                <mxCell id="W6hokBZnQVttRN7ZxCaq-23" value="+ quantity: int" style="text;strokeColor=#001DBC;fillColor=none;align=left;verticalAlign=top;spacingLeft=4;spacingRight=4;overflow=hidden;rotatable=0;points=[[0,0.5],[1,0.5]];portConstraint=eastwest;fontColor=#000000;" parent="W6hokBZnQVttRN7ZxCaq-15" vertex="1">
                    <mxGeometry y="156" width="160" height="26" as="geometry"/>
                </mxCell>
                <mxCell id="W6hokBZnQVttRN7ZxCaq-24" value="+ availability: enum(yes,no)" style="text;strokeColor=#001DBC;fillColor=none;align=left;verticalAlign=top;spacingLeft=4;spacingRight=4;overflow=hidden;rotatable=0;points=[[0,0.5],[1,0.5]];portConstraint=eastwest;fontColor=#000000;" parent="W6hokBZnQVttRN7ZxCaq-15" vertex="1">
                    <mxGeometry y="182" width="160" height="26" as="geometry"/>
                </mxCell>
                <mxCell id="W6hokBZnQVttRN7ZxCaq-25" value="+ description: string" style="text;strokeColor=#001DBC;fillColor=none;align=left;verticalAlign=top;spacingLeft=4;spacingRight=4;overflow=hidden;rotatable=0;points=[[0,0.5],[1,0.5]];portConstraint=eastwest;fontColor=#000000;" parent="W6hokBZnQVttRN7ZxCaq-15" vertex="1">
                    <mxGeometry y="208" width="160" height="26" as="geometry"/>
                </mxCell>
                <mxCell id="W6hokBZnQVttRN7ZxCaq-26" value="+ fk_company: int" style="text;strokeColor=#001DBC;fillColor=#1ba1e2;align=left;verticalAlign=top;spacingLeft=4;spacingRight=4;overflow=hidden;rotatable=0;points=[[0,0.5],[1,0.5]];portConstraint=eastwest;fontColor=#000000;" parent="W6hokBZnQVttRN7ZxCaq-15" vertex="1">
                    <mxGeometry y="234" width="160" height="26" as="geometry"/>
                </mxCell>
                <mxCell id="W6hokBZnQVttRN7ZxCaq-27" value="company" style="swimlane;fontStyle=1;align=center;verticalAlign=top;childLayout=stackLayout;horizontal=1;startSize=26;horizontalStack=0;resizeParent=1;resizeParentMax=0;resizeLast=0;collapsible=1;marginBottom=0;fillColor=#0050ef;fontColor=#FFFFFF;strokeColor=#001DBC;fontSize=15;" parent="W6hokBZnQVttRN7ZxCaq-1" vertex="1">
                    <mxGeometry x="748" y="298" width="160" height="182" as="geometry"/>
                </mxCell>
                <mxCell id="W6hokBZnQVttRN7ZxCaq-28" value="+ company_id: int" style="text;strokeColor=#36393d;fillColor=#FFFF33;align=left;verticalAlign=top;spacingLeft=4;spacingRight=4;overflow=hidden;rotatable=0;points=[[0,0.5],[1,0.5]];portConstraint=eastwest;fontStyle=4;fontColor=#000000;" parent="W6hokBZnQVttRN7ZxCaq-27" vertex="1">
                    <mxGeometry y="26" width="160" height="26" as="geometry"/>
                </mxCell>
                <mxCell id="W6hokBZnQVttRN7ZxCaq-31" value="+ name: string" style="text;strokeColor=#001DBC;fillColor=none;align=left;verticalAlign=top;spacingLeft=4;spacingRight=4;overflow=hidden;rotatable=0;points=[[0,0.5],[1,0.5]];portConstraint=eastwest;fontColor=#000000;" parent="W6hokBZnQVttRN7ZxCaq-27" vertex="1">
                    <mxGeometry y="52" width="160" height="26" as="geometry"/>
                </mxCell>
                <mxCell id="W6hokBZnQVttRN7ZxCaq-32" value="+ address: string" style="text;strokeColor=#001DBC;fillColor=none;align=left;verticalAlign=top;spacingLeft=4;spacingRight=4;overflow=hidden;rotatable=0;points=[[0,0.5],[1,0.5]];portConstraint=eastwest;fontColor=#000000;" parent="W6hokBZnQVttRN7ZxCaq-27" vertex="1">
                    <mxGeometry y="78" width="160" height="26" as="geometry"/>
                </mxCell>
                <mxCell id="W6hokBZnQVttRN7ZxCaq-33" value="+ department: string" style="text;strokeColor=#001DBC;fillColor=none;align=left;verticalAlign=top;spacingLeft=4;spacingRight=4;overflow=hidden;rotatable=0;points=[[0,0.5],[1,0.5]];portConstraint=eastwest;fontColor=#000000;" parent="W6hokBZnQVttRN7ZxCaq-27" vertex="1">
                    <mxGeometry y="104" width="160" height="26" as="geometry"/>
                </mxCell>
                <mxCell id="W6hokBZnQVttRN7ZxCaq-34" value="+ fk_address_id: int" style="text;strokeColor=#001DBC;fillColor=#1ba1e2;align=left;verticalAlign=top;spacingLeft=4;spacingRight=4;overflow=hidden;rotatable=0;points=[[0,0.5],[1,0.5]];portConstraint=eastwest;fontColor=#000000;" parent="W6hokBZnQVttRN7ZxCaq-27" vertex="1">
                    <mxGeometry y="130" width="160" height="26" as="geometry"/>
                </mxCell>
                <mxCell id="W6hokBZnQVttRN7ZxCaq-35" value="+ fk_employee_id: int" style="text;strokeColor=#001DBC;fillColor=#1ba1e2;align=left;verticalAlign=top;spacingLeft=4;spacingRight=4;overflow=hidden;rotatable=0;points=[[0,0.5],[1,0.5]];portConstraint=eastwest;fontColor=#000000;" parent="W6hokBZnQVttRN7ZxCaq-27" vertex="1">
                    <mxGeometry y="156" width="160" height="26" as="geometry"/>
                </mxCell>
                <mxCell id="W6hokBZnQVttRN7ZxCaq-36" value="customer_product" style="swimlane;fontStyle=1;align=center;verticalAlign=top;childLayout=stackLayout;horizontal=1;startSize=26;horizontalStack=0;resizeParent=1;resizeParentMax=0;resizeLast=0;collapsible=1;marginBottom=0;fillColor=#0050ef;fontColor=#000000;strokeColor=#001DBC;fontSize=15;" parent="W6hokBZnQVttRN7ZxCaq-1" vertex="1">
                    <mxGeometry x="88" y="263" width="160" height="104" as="geometry"/>
                </mxCell>
                <mxCell id="W6hokBZnQVttRN7ZxCaq-37" value="+ customer_product_id: int" style="text;strokeColor=#36393d;fillColor=#FFFF33;align=left;verticalAlign=top;spacingLeft=4;spacingRight=4;overflow=hidden;rotatable=0;points=[[0,0.5],[1,0.5]];portConstraint=eastwest;fontStyle=4;fontColor=#000000;" parent="W6hokBZnQVttRN7ZxCaq-36" vertex="1">
                    <mxGeometry y="26" width="160" height="26" as="geometry"/>
                </mxCell>
                <mxCell id="W6hokBZnQVttRN7ZxCaq-38" value="+ fk_product_id: int" style="text;strokeColor=#001DBC;fillColor=#1BA1E2;align=left;verticalAlign=top;spacingLeft=4;spacingRight=4;overflow=hidden;rotatable=0;points=[[0,0.5],[1,0.5]];portConstraint=eastwest;fontColor=#000000;" parent="W6hokBZnQVttRN7ZxCaq-36" vertex="1">
                    <mxGeometry y="52" width="160" height="26" as="geometry"/>
                </mxCell>
                <mxCell id="W6hokBZnQVttRN7ZxCaq-39" value="+ fk_customer_id: int" style="text;strokeColor=#001DBC;fillColor=#1BA1E2;align=left;verticalAlign=top;spacingLeft=4;spacingRight=4;overflow=hidden;rotatable=0;points=[[0,0.5],[1,0.5]];portConstraint=eastwest;fontColor=#000000;" parent="W6hokBZnQVttRN7ZxCaq-36" vertex="1">
                    <mxGeometry y="78" width="160" height="26" as="geometry"/>
                </mxCell>
                <mxCell id="W6hokBZnQVttRN7ZxCaq-40" style="edgeStyle=orthogonalEdgeStyle;html=1;exitX=0;exitY=0.5;exitDx=0;exitDy=0;entryX=1;entryY=0.5;entryDx=0;entryDy=0;endArrow=ERmany;endFill=0;startArrow=ERone;startFill=0;fontColor=#000000;strokeColor=#001DBC;" parent="W6hokBZnQVttRN7ZxCaq-1" source="W6hokBZnQVttRN7ZxCaq-16" target="W6hokBZnQVttRN7ZxCaq-38" edge="1">
                    <mxGeometry relative="1" as="geometry"/>
                </mxCell>
                <mxCell id="W6hokBZnQVttRN7ZxCaq-41" style="edgeStyle=orthogonalEdgeStyle;html=1;exitX=1;exitY=0.5;exitDx=0;exitDy=0;entryX=0;entryY=0.5;entryDx=0;entryDy=0;endArrow=ERmany;endFill=0;startArrow=ERone;startFill=0;fontColor=#000000;strokeColor=#001DBC;" parent="W6hokBZnQVttRN7ZxCaq-1" source="W6hokBZnQVttRN7ZxCaq-3" target="W6hokBZnQVttRN7ZxCaq-39" edge="1">
                    <mxGeometry relative="1" as="geometry"/>
                </mxCell>
                <mxCell id="W6hokBZnQVttRN7ZxCaq-42" style="edgeStyle=orthogonalEdgeStyle;html=1;exitX=1;exitY=0.5;exitDx=0;exitDy=0;entryX=0;entryY=0.5;entryDx=0;entryDy=0;endArrow=ERone;endFill=0;startArrow=ERmany;startFill=0;fontColor=#000000;strokeColor=#001DBC;" parent="W6hokBZnQVttRN7ZxCaq-1" source="W6hokBZnQVttRN7ZxCaq-26" target="W6hokBZnQVttRN7ZxCaq-28" edge="1">
                    <mxGeometry relative="1" as="geometry">
                        <Array as="points">
                            <mxPoint x="726" y="510"/>
                            <mxPoint x="726" y="337"/>
                        </Array>
                    </mxGeometry>
                </mxCell>
                <mxCell id="W6hokBZnQVttRN7ZxCaq-43" value="account" style="swimlane;fontStyle=1;align=center;verticalAlign=top;childLayout=stackLayout;horizontal=1;startSize=26;horizontalStack=0;resizeParent=1;resizeParentMax=0;resizeLast=0;collapsible=1;marginBottom=0;fillColor=#0050ef;fontColor=#FFFFFF;strokeColor=#001DBC;fontSize=15;" parent="W6hokBZnQVttRN7ZxCaq-1" vertex="1">
                    <mxGeometry x="-182" y="683" width="160" height="104" as="geometry"/>
                </mxCell>
                <mxCell id="W6hokBZnQVttRN7ZxCaq-44" value="+ account_id: int" style="text;strokeColor=#36393d;fillColor=#FFFF33;align=left;verticalAlign=top;spacingLeft=4;spacingRight=4;overflow=hidden;rotatable=0;points=[[0,0.5],[1,0.5]];portConstraint=eastwest;fontStyle=4;fontColor=#000000;" parent="W6hokBZnQVttRN7ZxCaq-43" vertex="1">
                    <mxGeometry y="26" width="160" height="26" as="geometry"/>
                </mxCell>
                <mxCell id="W6hokBZnQVttRN7ZxCaq-45" value="+ username: string" style="text;strokeColor=#001DBC;fillColor=none;align=left;verticalAlign=top;spacingLeft=4;spacingRight=4;overflow=hidden;rotatable=0;points=[[0,0.5],[1,0.5]];portConstraint=eastwest;fontColor=#000000;" parent="W6hokBZnQVttRN7ZxCaq-43" vertex="1">
                    <mxGeometry y="52" width="160" height="26" as="geometry"/>
                </mxCell>
                <mxCell id="W6hokBZnQVttRN7ZxCaq-46" value="+ password: int" style="text;strokeColor=#001DBC;fillColor=none;align=left;verticalAlign=top;spacingLeft=4;spacingRight=4;overflow=hidden;rotatable=0;points=[[0,0.5],[1,0.5]];portConstraint=eastwest;fontColor=#000000;" parent="W6hokBZnQVttRN7ZxCaq-43" vertex="1">
                    <mxGeometry y="78" width="160" height="26" as="geometry"/>
                </mxCell>
                <mxCell id="W6hokBZnQVttRN7ZxCaq-49" style="edgeStyle=orthogonalEdgeStyle;html=1;exitX=0;exitY=0.5;exitDx=0;exitDy=0;entryX=0;entryY=0.5;entryDx=0;entryDy=0;startArrow=ERone;startFill=0;endArrow=ERmany;endFill=0;fontColor=#000000;strokeColor=#001DBC;" parent="W6hokBZnQVttRN7ZxCaq-1" source="W6hokBZnQVttRN7ZxCaq-44" target="W6hokBZnQVttRN7ZxCaq-14" edge="1">
                    <mxGeometry relative="1" as="geometry">
                        <Array as="points">
                            <mxPoint x="-285" y="722"/>
                            <mxPoint x="-285" y="562"/>
                        </Array>
                    </mxGeometry>
                </mxCell>
                <mxCell id="W6hokBZnQVttRN7ZxCaq-50" value="shipping_company" style="swimlane;fontStyle=1;align=center;verticalAlign=top;childLayout=stackLayout;horizontal=1;startSize=26;horizontalStack=0;resizeParent=1;resizeParentMax=0;resizeLast=0;collapsible=1;marginBottom=0;fillColor=#0050ef;fontColor=#FFFFFF;strokeColor=#001DBC;fontSize=15;" parent="W6hokBZnQVttRN7ZxCaq-1" vertex="1">
                    <mxGeometry x="888" y="957" width="160" height="208" as="geometry"/>
                </mxCell>
                <mxCell id="W6hokBZnQVttRN7ZxCaq-51" value="+ shipping_company_id: int" style="text;strokeColor=#36393d;fillColor=#FFFF33;align=left;verticalAlign=top;spacingLeft=4;spacingRight=4;overflow=hidden;rotatable=0;points=[[0,0.5],[1,0.5]];portConstraint=eastwest;fontStyle=4;fontColor=#000000;" parent="W6hokBZnQVttRN7ZxCaq-50" vertex="1">
                    <mxGeometry y="26" width="160" height="26" as="geometry"/>
                </mxCell>
                <mxCell id="W6hokBZnQVttRN7ZxCaq-53" value="+ name: string" style="text;strokeColor=#001DBC;fillColor=none;align=left;verticalAlign=top;spacingLeft=4;spacingRight=4;overflow=hidden;rotatable=0;points=[[0,0.5],[1,0.5]];portConstraint=eastwest;fontColor=#000000;" parent="W6hokBZnQVttRN7ZxCaq-50" vertex="1">
                    <mxGeometry y="52" width="160" height="26" as="geometry"/>
                </mxCell>
                <mxCell id="W6hokBZnQVttRN7ZxCaq-54" value="+ address: string" style="text;strokeColor=#001DBC;fillColor=none;align=left;verticalAlign=top;spacingLeft=4;spacingRight=4;overflow=hidden;rotatable=0;points=[[0,0.5],[1,0.5]];portConstraint=eastwest;fontColor=#000000;" parent="W6hokBZnQVttRN7ZxCaq-50" vertex="1">
                    <mxGeometry y="78" width="160" height="26" as="geometry"/>
                </mxCell>
                <mxCell id="W6hokBZnQVttRN7ZxCaq-55" value="+ department: string" style="text;strokeColor=#001DBC;fillColor=none;align=left;verticalAlign=top;spacingLeft=4;spacingRight=4;overflow=hidden;rotatable=0;points=[[0,0.5],[1,0.5]];portConstraint=eastwest;fontColor=#000000;" parent="W6hokBZnQVttRN7ZxCaq-50" vertex="1">
                    <mxGeometry y="104" width="160" height="26" as="geometry"/>
                </mxCell>
                <mxCell id="W6hokBZnQVttRN7ZxCaq-56" value="+ fk_address-Id: int" style="text;strokeColor=#001DBC;fillColor=#1ba1e2;align=left;verticalAlign=top;spacingLeft=4;spacingRight=4;overflow=hidden;rotatable=0;points=[[0,0.5],[1,0.5]];portConstraint=eastwest;fontColor=#000000;" parent="W6hokBZnQVttRN7ZxCaq-50" vertex="1">
                    <mxGeometry y="130" width="160" height="26" as="geometry"/>
                </mxCell>
                <mxCell id="W6hokBZnQVttRN7ZxCaq-57" value="+ fk_product-Id: int" style="text;strokeColor=#001DBC;fillColor=#1ba1e2;align=left;verticalAlign=top;spacingLeft=4;spacingRight=4;overflow=hidden;rotatable=0;points=[[0,0.5],[1,0.5]];portConstraint=eastwest;fontColor=#000000;" parent="W6hokBZnQVttRN7ZxCaq-50" vertex="1">
                    <mxGeometry y="156" width="160" height="26" as="geometry"/>
                </mxCell>
                <mxCell id="W6hokBZnQVttRN7ZxCaq-58" value="+ fk_customer-Id: int" style="text;strokeColor=#001DBC;fillColor=#1ba1e2;align=left;verticalAlign=top;spacingLeft=4;spacingRight=4;overflow=hidden;rotatable=0;points=[[0,0.5],[1,0.5]];portConstraint=eastwest;fontColor=#000000;" parent="W6hokBZnQVttRN7ZxCaq-50" vertex="1">
                    <mxGeometry y="182" width="160" height="26" as="geometry"/>
                </mxCell>
                <mxCell id="W6hokBZnQVttRN7ZxCaq-59" value="address" style="swimlane;fontStyle=1;align=center;verticalAlign=top;childLayout=stackLayout;horizontal=1;startSize=26;horizontalStack=0;resizeParent=1;resizeParentMax=0;resizeLast=0;collapsible=1;marginBottom=0;fillColor=#0050ef;fontColor=#FFFFFF;strokeColor=#001DBC;fontSize=15;" parent="W6hokBZnQVttRN7ZxCaq-1" vertex="1">
                    <mxGeometry x="438" y="753" width="160" height="182" as="geometry"/>
                </mxCell>
                <mxCell id="W6hokBZnQVttRN7ZxCaq-60" value="+ address_id: int" style="text;strokeColor=#36393d;fillColor=#FFFF33;align=left;verticalAlign=top;spacingLeft=4;spacingRight=4;overflow=hidden;rotatable=0;points=[[0,0.5],[1,0.5]];portConstraint=eastwest;fontStyle=4;fontColor=#000000;" parent="W6hokBZnQVttRN7ZxCaq-59" vertex="1">
                    <mxGeometry y="26" width="160" height="26" as="geometry"/>
                </mxCell>
                <mxCell id="W6hokBZnQVttRN7ZxCaq-62" value="+ country: string" style="text;strokeColor=#001DBC;fillColor=none;align=left;verticalAlign=top;spacingLeft=4;spacingRight=4;overflow=hidden;rotatable=0;points=[[0,0.5],[1,0.5]];portConstraint=eastwest;fontColor=#000000;" parent="W6hokBZnQVttRN7ZxCaq-59" vertex="1">
                    <mxGeometry y="52" width="160" height="26" as="geometry"/>
                </mxCell>
                <mxCell id="W6hokBZnQVttRN7ZxCaq-63" value="+ city: string" style="text;strokeColor=#001DBC;fillColor=none;align=left;verticalAlign=top;spacingLeft=4;spacingRight=4;overflow=hidden;rotatable=0;points=[[0,0.5],[1,0.5]];portConstraint=eastwest;fontColor=#000000;" parent="W6hokBZnQVttRN7ZxCaq-59" vertex="1">
                    <mxGeometry y="78" width="160" height="26" as="geometry"/>
                </mxCell>
                <mxCell id="W6hokBZnQVttRN7ZxCaq-64" value="+ postal_code: int" style="text;strokeColor=#001DBC;fillColor=none;align=left;verticalAlign=top;spacingLeft=4;spacingRight=4;overflow=hidden;rotatable=0;points=[[0,0.5],[1,0.5]];portConstraint=eastwest;fontColor=#000000;" parent="W6hokBZnQVttRN7ZxCaq-59" vertex="1">
                    <mxGeometry y="104" width="160" height="26" as="geometry"/>
                </mxCell>
                <mxCell id="W6hokBZnQVttRN7ZxCaq-65" value="+ street_name: string" style="text;strokeColor=#001DBC;fillColor=none;align=left;verticalAlign=top;spacingLeft=4;spacingRight=4;overflow=hidden;rotatable=0;points=[[0,0.5],[1,0.5]];portConstraint=eastwest;fontColor=#000000;" parent="W6hokBZnQVttRN7ZxCaq-59" vertex="1">
                    <mxGeometry y="130" width="160" height="26" as="geometry"/>
                </mxCell>
                <mxCell id="W6hokBZnQVttRN7ZxCaq-66" value="+ house_number: int" style="text;strokeColor=#001DBC;fillColor=none;align=left;verticalAlign=top;spacingLeft=4;spacingRight=4;overflow=hidden;rotatable=0;points=[[0,0.5],[1,0.5]];portConstraint=eastwest;fontColor=#000000;" parent="W6hokBZnQVttRN7ZxCaq-59" vertex="1">
                    <mxGeometry y="156" width="160" height="26" as="geometry"/>
                </mxCell>
                <mxCell id="W6hokBZnQVttRN7ZxCaq-67" style="edgeStyle=orthogonalEdgeStyle;html=1;exitX=1;exitY=0.5;exitDx=0;exitDy=0;startArrow=ERmany;startFill=0;endArrow=ERone;endFill=0;entryX=0;entryY=0.5;entryDx=0;entryDy=0;fontColor=#000000;strokeColor=#001DBC;" parent="W6hokBZnQVttRN7ZxCaq-1" source="W6hokBZnQVttRN7ZxCaq-13" target="W6hokBZnQVttRN7ZxCaq-60" edge="1">
                    <mxGeometry relative="1" as="geometry">
                        <mxPoint x="406" y="763" as="targetPoint"/>
                    </mxGeometry>
                </mxCell>
                <mxCell id="W6hokBZnQVttRN7ZxCaq-68" style="edgeStyle=orthogonalEdgeStyle;html=1;entryX=1;entryY=0.5;entryDx=0;entryDy=0;startArrow=ERmany;startFill=0;endArrow=ERone;endFill=0;fontColor=#000000;strokeColor=#001DBC;" parent="W6hokBZnQVttRN7ZxCaq-1" target="W6hokBZnQVttRN7ZxCaq-60" edge="1">
                    <mxGeometry relative="1" as="geometry">
                        <mxPoint x="908" y="448" as="sourcePoint"/>
                        <Array as="points">
                            <mxPoint x="1348" y="448"/>
                            <mxPoint x="1348" y="792"/>
                        </Array>
                    </mxGeometry>
                </mxCell>
                <mxCell id="W6hokBZnQVttRN7ZxCaq-69" style="edgeStyle=orthogonalEdgeStyle;html=1;exitX=0;exitY=0.5;exitDx=0;exitDy=0;entryX=1;entryY=0.5;entryDx=0;entryDy=0;startArrow=ERmany;startFill=0;endArrow=ERone;endFill=0;fontColor=#000000;strokeColor=#001DBC;" parent="W6hokBZnQVttRN7ZxCaq-1" source="W6hokBZnQVttRN7ZxCaq-56" target="W6hokBZnQVttRN7ZxCaq-60" edge="1">
                    <mxGeometry relative="1" as="geometry"/>
                </mxCell>
                <mxCell id="W6hokBZnQVttRN7ZxCaq-70" value="invoice" style="swimlane;fontStyle=1;align=center;verticalAlign=top;childLayout=stackLayout;horizontal=1;startSize=26;horizontalStack=0;resizeParent=1;resizeParentMax=0;resizeLast=0;collapsible=1;marginBottom=0;fillColor=#0050ef;fontColor=#FFFFFF;strokeColor=#001DBC;fontSize=15;" parent="W6hokBZnQVttRN7ZxCaq-1" vertex="1">
                    <mxGeometry x="294" y="1003" width="160" height="104" as="geometry"/>
                </mxCell>
                <mxCell id="W6hokBZnQVttRN7ZxCaq-71" value="+ invoice_id: int" style="text;strokeColor=#36393d;fillColor=#FFFF33;align=left;verticalAlign=top;spacingLeft=4;spacingRight=4;overflow=hidden;rotatable=0;points=[[0,0.5],[1,0.5]];portConstraint=eastwest;fontStyle=4;fontColor=#000000;" parent="W6hokBZnQVttRN7ZxCaq-70" vertex="1">
                    <mxGeometry y="26" width="160" height="26" as="geometry"/>
                </mxCell>
                <mxCell id="W6hokBZnQVttRN7ZxCaq-72" value="+ fk-product_id: int" style="text;strokeColor=#001DBC;fillColor=#1ba1e2;align=left;verticalAlign=top;spacingLeft=4;spacingRight=4;overflow=hidden;rotatable=0;points=[[0,0.5],[1,0.5]];portConstraint=eastwest;fontStyle=0;fontColor=#000000;" parent="W6hokBZnQVttRN7ZxCaq-70" vertex="1">
                    <mxGeometry y="52" width="160" height="26" as="geometry"/>
                </mxCell>
                <mxCell id="W6hokBZnQVttRN7ZxCaq-73" value="+  fk_customer_id: int" style="text;strokeColor=#001DBC;fillColor=#1ba1e2;align=left;verticalAlign=top;spacingLeft=4;spacingRight=4;overflow=hidden;rotatable=0;points=[[0,0.5],[1,0.5]];portConstraint=eastwest;fontColor=#000000;" parent="W6hokBZnQVttRN7ZxCaq-70" vertex="1">
                    <mxGeometry y="78" width="160" height="26" as="geometry"/>
                </mxCell>
                <mxCell id="W6hokBZnQVttRN7ZxCaq-74" value="payment_form" style="swimlane;fontStyle=1;align=center;verticalAlign=top;childLayout=stackLayout;horizontal=1;startSize=26;horizontalStack=0;resizeParent=1;resizeParentMax=0;resizeLast=0;collapsible=1;marginBottom=0;fillColor=#0050ef;fontColor=#FFFFFF;strokeColor=#001DBC;fontSize=15;" parent="W6hokBZnQVttRN7ZxCaq-1" vertex="1">
                    <mxGeometry x="-62" y="983" width="160" height="156" as="geometry"/>
                </mxCell>
                <mxCell id="W6hokBZnQVttRN7ZxCaq-75" value="+ payment_form_id: int" style="text;strokeColor=#36393d;fillColor=#FFFF33;align=left;verticalAlign=top;spacingLeft=4;spacingRight=4;overflow=hidden;rotatable=0;points=[[0,0.5],[1,0.5]];portConstraint=eastwest;fontStyle=4;fontColor=#000000;" parent="W6hokBZnQVttRN7ZxCaq-74" vertex="1">
                    <mxGeometry y="26" width="160" height="26" as="geometry"/>
                </mxCell>
                <mxCell id="W6hokBZnQVttRN7ZxCaq-77" value="+ creditcard: int" style="text;strokeColor=#001DBC;fillColor=none;align=left;verticalAlign=top;spacingLeft=4;spacingRight=4;overflow=hidden;rotatable=0;points=[[0,0.5],[1,0.5]];portConstraint=eastwest;fontColor=#000000;" parent="W6hokBZnQVttRN7ZxCaq-74" vertex="1">
                    <mxGeometry y="52" width="160" height="26" as="geometry"/>
                </mxCell>
                <mxCell id="W6hokBZnQVttRN7ZxCaq-78" value="+ paypal: int" style="text;strokeColor=#001DBC;fillColor=none;align=left;verticalAlign=top;spacingLeft=4;spacingRight=4;overflow=hidden;rotatable=0;points=[[0,0.5],[1,0.5]];portConstraint=eastwest;fontColor=#000000;" parent="W6hokBZnQVttRN7ZxCaq-74" vertex="1">
                    <mxGeometry y="78" width="160" height="26" as="geometry"/>
                </mxCell>
                <mxCell id="W6hokBZnQVttRN7ZxCaq-79" value="+ fk_invoice_id: int" style="text;strokeColor=#001DBC;fillColor=#1ba1e2;align=left;verticalAlign=top;spacingLeft=4;spacingRight=4;overflow=hidden;rotatable=0;points=[[0,0.5],[1,0.5]];portConstraint=eastwest;fontColor=#000000;" parent="W6hokBZnQVttRN7ZxCaq-74" vertex="1">
                    <mxGeometry y="104" width="160" height="26" as="geometry"/>
                </mxCell>
                <mxCell id="W6hokBZnQVttRN7ZxCaq-80" value="+ fk_customer_id: int" style="text;strokeColor=#001DBC;fillColor=#1ba1e2;align=left;verticalAlign=top;spacingLeft=4;spacingRight=4;overflow=hidden;rotatable=0;points=[[0,0.5],[1,0.5]];portConstraint=eastwest;fontColor=#000000;" parent="W6hokBZnQVttRN7ZxCaq-74" vertex="1">
                    <mxGeometry y="130" width="160" height="26" as="geometry"/>
                </mxCell>
                <mxCell id="W6hokBZnQVttRN7ZxCaq-81" style="edgeStyle=orthogonalEdgeStyle;html=1;exitX=1;exitY=0.5;exitDx=0;exitDy=0;entryX=0;entryY=0.5;entryDx=0;entryDy=0;startArrow=ERmany;startFill=0;endArrow=ERone;endFill=0;fontColor=#000000;strokeColor=#001DBC;" parent="W6hokBZnQVttRN7ZxCaq-1" source="W6hokBZnQVttRN7ZxCaq-79" target="W6hokBZnQVttRN7ZxCaq-71" edge="1">
                    <mxGeometry relative="1" as="geometry"/>
                </mxCell>
                <mxCell id="W6hokBZnQVttRN7ZxCaq-82" style="edgeStyle=orthogonalEdgeStyle;html=1;exitX=0;exitY=0.5;exitDx=0;exitDy=0;entryX=0;entryY=0.5;entryDx=0;entryDy=0;startArrow=ERmany;startFill=0;endArrow=ERone;endFill=0;fontColor=#000000;strokeColor=#001DBC;" parent="W6hokBZnQVttRN7ZxCaq-1" source="W6hokBZnQVttRN7ZxCaq-80" target="W6hokBZnQVttRN7ZxCaq-3" edge="1">
                    <mxGeometry relative="1" as="geometry">
                        <Array as="points">
                            <mxPoint x="-352" y="1126"/>
                            <mxPoint x="-352" y="302"/>
                        </Array>
                    </mxGeometry>
                </mxCell>
                <mxCell id="W6hokBZnQVttRN7ZxCaq-83" value="product_to_shipping_company" style="swimlane;fontStyle=1;align=center;verticalAlign=top;childLayout=stackLayout;horizontal=1;startSize=26;horizontalStack=0;resizeParent=1;resizeParentMax=0;resizeLast=0;collapsible=1;marginBottom=0;fillColor=#0050ef;fontColor=#FFFFFF;strokeColor=#001DBC;fontSize=15;" parent="W6hokBZnQVttRN7ZxCaq-1" vertex="1">
                    <mxGeometry x="804" y="565" width="285" height="104" as="geometry"/>
                </mxCell>
                <mxCell id="W6hokBZnQVttRN7ZxCaq-84" value="+ product_to_shipping_company_id: int" style="text;strokeColor=#36393d;fillColor=#FFFF33;align=left;verticalAlign=top;spacingLeft=4;spacingRight=4;overflow=hidden;rotatable=0;points=[[0,0.5],[1,0.5]];portConstraint=eastwest;fontStyle=4;fontColor=#000000;" parent="W6hokBZnQVttRN7ZxCaq-83" vertex="1">
                    <mxGeometry y="26" width="285" height="26" as="geometry"/>
                </mxCell>
                <mxCell id="W6hokBZnQVttRN7ZxCaq-85" value="+ fk_product_id: int" style="text;strokeColor=#001DBC;fillColor=#1ba1e2;align=left;verticalAlign=top;spacingLeft=4;spacingRight=4;overflow=hidden;rotatable=0;points=[[0,0.5],[1,0.5]];portConstraint=eastwest;fontColor=#000000;" parent="W6hokBZnQVttRN7ZxCaq-83" vertex="1">
                    <mxGeometry y="52" width="285" height="26" as="geometry"/>
                </mxCell>
                <mxCell id="W6hokBZnQVttRN7ZxCaq-86" value="+ fk_shipping_company_id: int" style="text;strokeColor=#001DBC;fillColor=#1ba1e2;align=left;verticalAlign=top;spacingLeft=4;spacingRight=4;overflow=hidden;rotatable=0;points=[[0,0.5],[1,0.5]];portConstraint=eastwest;fontColor=#000000;" parent="W6hokBZnQVttRN7ZxCaq-83" vertex="1">
                    <mxGeometry y="78" width="285" height="26" as="geometry"/>
                </mxCell>
                <mxCell id="W6hokBZnQVttRN7ZxCaq-87" style="edgeStyle=orthogonalEdgeStyle;html=1;exitX=1;exitY=0.5;exitDx=0;exitDy=0;entryX=0;entryY=0.5;entryDx=0;entryDy=0;startArrow=ERone;startFill=0;endArrow=ERmany;endFill=0;fontColor=#000000;strokeColor=#001DBC;" parent="W6hokBZnQVttRN7ZxCaq-1" source="W6hokBZnQVttRN7ZxCaq-16" target="W6hokBZnQVttRN7ZxCaq-85" edge="1">
                    <mxGeometry relative="1" as="geometry">
                        <Array as="points">
                            <mxPoint x="696" y="302"/>
                            <mxPoint x="696" y="630"/>
                        </Array>
                    </mxGeometry>
                </mxCell>
                <mxCell id="W6hokBZnQVttRN7ZxCaq-88" style="edgeStyle=orthogonalEdgeStyle;html=1;exitX=1;exitY=0.5;exitDx=0;exitDy=0;entryX=1;entryY=0.5;entryDx=0;entryDy=0;startArrow=ERmany;startFill=0;endArrow=ERone;endFill=0;fontColor=#000000;strokeColor=#001DBC;" parent="W6hokBZnQVttRN7ZxCaq-1" source="W6hokBZnQVttRN7ZxCaq-86" target="W6hokBZnQVttRN7ZxCaq-51" edge="1">
                    <mxGeometry relative="1" as="geometry">
                        <Array as="points">
                            <mxPoint x="1168" y="656"/>
                            <mxPoint x="1168" y="996"/>
                        </Array>
                    </mxGeometry>
                </mxCell>
                <mxCell id="W6hokBZnQVttRN7ZxCaq-89" value="employee" style="swimlane;fontStyle=0;childLayout=stackLayout;horizontal=1;startSize=26;fillColor=#0050ef;horizontalStack=0;resizeParent=1;resizeParentMax=0;resizeLast=0;collapsible=1;marginBottom=0;fontColor=#FFFFFF;strokeColor=#001DBC;fontSize=15;" parent="W6hokBZnQVttRN7ZxCaq-1" vertex="1">
                    <mxGeometry x="405" y="1374" width="140" height="234" as="geometry"/>
                </mxCell>
                <mxCell id="W6hokBZnQVttRN7ZxCaq-90" value="+ employee_id: int" style="text;strokeColor=#36393d;fillColor=#FFFF33;align=left;verticalAlign=top;spacingLeft=4;spacingRight=4;overflow=hidden;rotatable=0;points=[[0,0.5],[1,0.5]];portConstraint=eastwest;fontStyle=4;fontColor=#000000;" parent="W6hokBZnQVttRN7ZxCaq-89" vertex="1">
                    <mxGeometry y="26" width="140" height="26" as="geometry"/>
                </mxCell>
                <mxCell id="W6hokBZnQVttRN7ZxCaq-91" value="+ first_name: string" style="text;strokeColor=#001DBC;fillColor=none;align=left;verticalAlign=top;spacingLeft=4;spacingRight=4;overflow=hidden;rotatable=0;points=[[0,0.5],[1,0.5]];portConstraint=eastwest;fontColor=#000000;" parent="W6hokBZnQVttRN7ZxCaq-89" vertex="1">
                    <mxGeometry y="52" width="140" height="26" as="geometry"/>
                </mxCell>
                <mxCell id="W6hokBZnQVttRN7ZxCaq-92" value="+ last_name: string" style="text;strokeColor=#001DBC;fillColor=none;align=left;verticalAlign=top;spacingLeft=4;spacingRight=4;overflow=hidden;rotatable=0;points=[[0,0.5],[1,0.5]];portConstraint=eastwest;fontColor=#000000;" parent="W6hokBZnQVttRN7ZxCaq-89" vertex="1">
                    <mxGeometry y="78" width="140" height="26" as="geometry"/>
                </mxCell>
                <mxCell id="W6hokBZnQVttRN7ZxCaq-93" value="+ phone_number: int" style="text;strokeColor=#001DBC;fillColor=none;align=left;verticalAlign=top;spacingLeft=4;spacingRight=4;overflow=hidden;rotatable=0;points=[[0,0.5],[1,0.5]];portConstraint=eastwest;fontColor=#000000;" parent="W6hokBZnQVttRN7ZxCaq-89" vertex="1">
                    <mxGeometry y="104" width="140" height="26" as="geometry"/>
                </mxCell>
                <mxCell id="W6hokBZnQVttRN7ZxCaq-94" value="+ email: string" style="text;strokeColor=#001DBC;fillColor=none;align=left;verticalAlign=top;spacingLeft=4;spacingRight=4;overflow=hidden;rotatable=0;points=[[0,0.5],[1,0.5]];portConstraint=eastwest;fontColor=#000000;" parent="W6hokBZnQVttRN7ZxCaq-89" vertex="1">
                    <mxGeometry y="130" width="140" height="26" as="geometry"/>
                </mxCell>
                <mxCell id="W6hokBZnQVttRN7ZxCaq-95" value="+ gender: enum(F,M)" style="text;strokeColor=#001DBC;fillColor=none;align=left;verticalAlign=top;spacingLeft=4;spacingRight=4;overflow=hidden;rotatable=0;points=[[0,0.5],[1,0.5]];portConstraint=eastwest;fontColor=#000000;" parent="W6hokBZnQVttRN7ZxCaq-89" vertex="1">
                    <mxGeometry y="156" width="140" height="26" as="geometry"/>
                </mxCell>
                <mxCell id="W6hokBZnQVttRN7ZxCaq-96" value="+ date_of_birth: date" style="text;strokeColor=#001DBC;fillColor=none;align=left;verticalAlign=top;spacingLeft=4;spacingRight=4;overflow=hidden;rotatable=0;points=[[0,0.5],[1,0.5]];portConstraint=eastwest;fontColor=#000000;" parent="W6hokBZnQVttRN7ZxCaq-89" vertex="1">
                    <mxGeometry y="182" width="140" height="26" as="geometry"/>
                </mxCell>
                <mxCell id="W6hokBZnQVttRN7ZxCaq-97" value="+ fk_address_id: int" style="text;strokeColor=#001DBC;fillColor=#1ba1e2;align=left;verticalAlign=top;spacingLeft=4;spacingRight=4;overflow=hidden;rotatable=0;points=[[0,0.5],[1,0.5]];portConstraint=eastwest;fontColor=#000000;" parent="W6hokBZnQVttRN7ZxCaq-89" vertex="1">
                    <mxGeometry y="208" width="140" height="26" as="geometry"/>
                </mxCell>
                <mxCell id="W6hokBZnQVttRN7ZxCaq-98" style="edgeStyle=orthogonalEdgeStyle;html=1;exitX=1;exitY=0.5;exitDx=0;exitDy=0;entryX=0;entryY=0.5;entryDx=0;entryDy=0;startArrow=ERmany;startFill=0;endArrow=ERone;endFill=0;fontColor=#000000;strokeColor=#001DBC;" parent="W6hokBZnQVttRN7ZxCaq-1" source="W6hokBZnQVttRN7ZxCaq-73" target="W6hokBZnQVttRN7ZxCaq-3" edge="1">
                    <mxGeometry relative="1" as="geometry">
                        <Array as="points">
                            <mxPoint x="510" y="1094"/>
                            <mxPoint x="510" y="1185"/>
                            <mxPoint x="-444" y="1185"/>
                            <mxPoint x="-444" y="302"/>
                        </Array>
                    </mxGeometry>
                </mxCell>
                <mxCell id="W6hokBZnQVttRN7ZxCaq-99" style="edgeStyle=orthogonalEdgeStyle;html=1;exitX=1;exitY=0.5;exitDx=0;exitDy=0;startArrow=ERmany;startFill=0;endArrow=ERone;endFill=0;entryX=0;entryY=0.5;entryDx=0;entryDy=0;fontColor=#000000;strokeColor=#001DBC;" parent="W6hokBZnQVttRN7ZxCaq-1" source="W6hokBZnQVttRN7ZxCaq-72" target="W6hokBZnQVttRN7ZxCaq-16" edge="1">
                    <mxGeometry relative="1" as="geometry">
                        <mxPoint x="403" y="337" as="targetPoint"/>
                        <Array as="points">
                            <mxPoint x="516" y="1068"/>
                            <mxPoint x="516" y="981"/>
                            <mxPoint x="368" y="981"/>
                            <mxPoint x="368" y="302"/>
                        </Array>
                    </mxGeometry>
                </mxCell>
                <mxCell id="W6hokBZnQVttRN7ZxCaq-100" style="edgeStyle=orthogonalEdgeStyle;html=1;exitX=1;exitY=0.5;exitDx=0;exitDy=0;startArrow=ERone;startFill=0;endArrow=ERmany;endFill=0;entryX=0;entryY=0.5;entryDx=0;entryDy=0;fontColor=#000000;strokeColor=#001DBC;" parent="W6hokBZnQVttRN7ZxCaq-1" source="W6hokBZnQVttRN7ZxCaq-60" target="W6hokBZnQVttRN7ZxCaq-97" edge="1">
                    <mxGeometry relative="1" as="geometry">
                        <mxPoint x="320" y="1730" as="targetPoint"/>
                        <Array as="points">
                            <mxPoint x="683" y="792"/>
                            <mxPoint x="683" y="1268"/>
                            <mxPoint x="297" y="1268"/>
                            <mxPoint x="297" y="1595"/>
                        </Array>
                    </mxGeometry>
                </mxCell>
                <mxCell id="W6hokBZnQVttRN7ZxCaq-101" style="edgeStyle=orthogonalEdgeStyle;html=1;exitX=1;exitY=0.5;exitDx=0;exitDy=0;entryX=1;entryY=0.5;entryDx=0;entryDy=0;startArrow=ERmany;startFill=0;endArrow=ERone;endFill=0;fontColor=#000000;strokeColor=#001DBC;" parent="W6hokBZnQVttRN7ZxCaq-1" source="W6hokBZnQVttRN7ZxCaq-35" target="W6hokBZnQVttRN7ZxCaq-90" edge="1">
                    <mxGeometry relative="1" as="geometry">
                        <Array as="points">
                            <mxPoint x="1294" y="466"/>
                            <mxPoint x="1294" y="1413"/>
                        </Array>
                    </mxGeometry>
                </mxCell>
                <mxCell id="W6hokBZnQVttRN7ZxCaq-102" style="edgeStyle=orthogonalEdgeStyle;html=1;exitX=1;exitY=0.5;exitDx=0;exitDy=0;entryX=0;entryY=0.5;entryDx=0;entryDy=0;startArrow=ERone;startFill=0;endArrow=ERmany;endFill=0;fontColor=#000000;strokeColor=#001DBC;" parent="W6hokBZnQVttRN7ZxCaq-1" source="W6hokBZnQVttRN7ZxCaq-16" target="W6hokBZnQVttRN7ZxCaq-57" edge="1">
                    <mxGeometry relative="1" as="geometry">
                        <Array as="points">
                            <mxPoint x="657" y="302"/>
                            <mxPoint x="657" y="1126"/>
                        </Array>
                    </mxGeometry>
                </mxCell>
                <mxCell id="W6hokBZnQVttRN7ZxCaq-103" style="edgeStyle=orthogonalEdgeStyle;html=1;exitX=0;exitY=0.5;exitDx=0;exitDy=0;entryX=0;entryY=0.5;entryDx=0;entryDy=0;startArrow=ERone;startFill=0;endArrow=ERmany;endFill=0;fontColor=#000000;strokeColor=#001DBC;" parent="W6hokBZnQVttRN7ZxCaq-1" source="W6hokBZnQVttRN7ZxCaq-3" target="W6hokBZnQVttRN7ZxCaq-58" edge="1">
                    <mxGeometry relative="1" as="geometry">
                        <Array as="points">
                            <mxPoint x="-532" y="302"/>
                            <mxPoint x="-532" y="1626"/>
                            <mxPoint x="832" y="1626"/>
                            <mxPoint x="832" y="1152"/>
                        </Array>
                    </mxGeometry>
                </mxCell>
                <mxCell id="A4yN0IZyJwvcap9MYJDl-1" style="edgeStyle=orthogonalEdgeStyle;html=1;exitX=1;exitY=0.5;exitDx=0;exitDy=0;entryX=1;entryY=0.5;entryDx=0;entryDy=0;strokeColor=#001DBC;endArrow=ERone;endFill=0;startArrow=ERmany;startFill=0;" edge="1" parent="W6hokBZnQVttRN7ZxCaq-1" source="A4yN0IZyJwvcap9MYJDl-0" target="W6hokBZnQVttRN7ZxCaq-75">
                    <mxGeometry relative="1" as="geometry">
                        <Array as="points">
                            <mxPoint x="134" y="588"/>
                            <mxPoint x="134" y="1022"/>
                        </Array>
                    </mxGeometry>
                </mxCell>
            </root>
        </mxGraphModel>
    </diagram>
</mxfile>